<?xml version="1.0" encoding="utf-8"?>
<!-- Generator: Adobe Illustrator 21.0.2, SVG Export Plug-In . SVG Version: 6.00 Build 0)  -->
<svg version="1.1" id="Layer_1" xmlns="http://www.w3.org/2000/svg" xmlns:xlink="http://www.w3.org/1999/xlink" x="0px" y="0px"
	 viewBox="0 0 50 60" style="enable-background:new 0 0 50 60;" xml:space="preserve">
<style type="text/css">
	.st0{fill:#0A6DD3;}
	.st1{opacity:0.1;fill:#0A6DD3;}
	.st2{fill:#FFDF38;}
</style>
<g>
	<g>
		<path class="st0" d="M29.361,14.086c-0.063,0-0.127-0.016-0.185-0.048l-6.591-3.725c-0.118-0.066-0.19-0.191-0.19-0.326
			c0-0.135,0.072-0.26,0.19-0.327l12.608-7.165c0.118-0.067,0.262-0.064,0.376,0.003l6.305,3.726
			c0.115,0.067,0.185,0.191,0.185,0.324c0,0.133-0.071,0.256-0.187,0.323L29.55,14.035C29.491,14.069,29.427,14.086,29.361,14.086z
			 M23.531,9.985l5.828,3.294l11.584-6.734l-5.567-3.29L23.531,9.985z"/>
		<path class="st0" d="M35.379,46.183c-0.061,0-0.121-0.015-0.178-0.045l-5.874-3.152c-0.121-0.065-0.197-0.192-0.197-0.33V21.097
			l-6.542-3.619c-0.119-0.066-0.193-0.192-0.193-0.328V9.986c0-0.207,0.168-0.375,0.375-0.375s0.375,0.168,0.375,0.375v6.943
			l5.985,3.311v-6.528c0-0.133,0.07-0.256,0.185-0.323l12.179-7.164c0.117-0.068,0.262-0.068,0.377-0.002
			c0.116,0.067,0.188,0.191,0.188,0.326v35.821c0,0.138-0.075,0.264-0.195,0.329l-6.3,3.437c-0.017,0.01-0.033,0.018-0.052,0.024
			c-0.017,0.007-0.034,0.012-0.051,0.016H35.46c0,0,0,0-0.001,0C35.433,46.18,35.406,46.183,35.379,46.183z M29.88,42.431
			l5.124,2.75V18.099l-5.124,3.075V42.431z M35.379,17.062c0.063,0,0.127,0.016,0.185,0.049c0.118,0.066,0.19,0.191,0.19,0.326
			v27.739l5.555-3.03V7.203L29.88,13.925v6.374l5.306-3.184C35.245,17.08,35.312,17.062,35.379,17.062z"/>
	</g>
	<g>
		<polygon class="st1" points="29.504,20.875 35.173,17.56 35.379,45.807 29.365,42.605 		"/>
		<polygon class="st1" points="22.77,10.24 29.504,13.711 29.504,20.875 22.77,17.15 		"/>
	</g>
	<polygon class="st1" points="35.379,59.818 26.427,54.649 35.379,49.481 44.331,54.649 	"/>
	<polygon class="st2" points="14.855,24.775 5.669,30.079 5.669,19.472 14.855,14.168 	"/>
	<polygon class="st2" points="24.016,35.577 19.255,38.325 19.255,32.828 24.016,30.079 	"/>
	<polygon class="st2" points="17.613,4.425 13.939,6.547 13.939,2.304 17.613,0.182 	"/>
</g>
</svg>
