<?xml version="1.0" encoding="utf-8"?>
<!-- Generator: Adobe Illustrator 21.0.2, SVG Export Plug-In . SVG Version: 6.00 Build 0)  -->
<svg version="1.1" id="Layer_3" xmlns="http://www.w3.org/2000/svg" xmlns:xlink="http://www.w3.org/1999/xlink" x="0px" y="0px"
	 viewBox="0 0 50 60" style="enable-background:new 0 0 50 60;" xml:space="preserve">
<style type="text/css">
	.st0{fill:#0A6DD3;}
	.st1{opacity:0.1;fill:#0A6DD3;}
	.st2{fill:#FFDF38;}
</style>
<g>
	<g>
		<path class="st0" d="M20.129,17.306c-0.063,0-0.127-0.016-0.185-0.048l-5.882-3.325c-0.18-0.102-0.244-0.331-0.142-0.511
			c0.103-0.18,0.33-0.242,0.511-0.142l5.694,3.219L42.188,3.565c0.177-0.104,0.408-0.045,0.513,0.134
			c0.105,0.179,0.045,0.408-0.134,0.513L20.319,17.255C20.261,17.289,20.195,17.306,20.129,17.306z"/>
		<path class="st0" d="M20.386,49.018c-0.044,0-0.087-0.008-0.128-0.022c-0.097,0.035-0.208,0.03-0.301-0.021l-5.882-3.069
			c-0.124-0.064-0.202-0.192-0.202-0.332V39.18c0-0.136,0.074-0.262,0.193-0.328l10.936-6.074l-5.063-2.992
			c-0.114-0.067-0.184-0.19-0.184-0.323v-6.175l-5.691-3.217c-0.118-0.067-0.19-0.191-0.19-0.327v-6.138
			c0-0.134,0.072-0.258,0.188-0.325l22.76-13.042c0.118-0.069,0.267-0.067,0.384,0.006l5.37,3.324
			c0.11,0.068,0.178,0.189,0.178,0.319v31.967c0,0.134-0.071,0.257-0.187,0.324L20.574,48.967
			C20.515,49.001,20.45,49.018,20.386,49.018z M20.504,42.722v5.418l21.499-12.5V4.098L37,1.001L14.623,13.824v5.702l5.132,2.901
			v-5.495c0-0.207,0.168-0.375,0.375-0.375s0.375,0.168,0.375,0.375v5.489l16.316-9.395c0.117-0.066,0.26-0.067,0.375,0
			c0.116,0.067,0.188,0.191,0.188,0.325v6.393c0,0.133-0.07,0.255-0.185,0.323L26.13,26.607v5.535l10.692-6.075
			c0.117-0.066,0.258-0.064,0.374,0.002c0.115,0.067,0.187,0.191,0.187,0.324v6.394c0,0.134-0.071,0.258-0.188,0.325L20.504,42.722z
			 M14.623,45.346l5.132,2.678v-5.519c0-0.134,0.072-0.258,0.188-0.325l16.69-9.609v-5.532L25.94,33.113
			c-0.001,0.001-0.003,0.002-0.004,0.003L14.623,39.4V45.346z M20.504,29.249l4.876,2.881v-5.736c0-0.133,0.07-0.255,0.184-0.323
			l11.068-6.541V14l-16.128,9.286V29.249z"/>
		<path class="st0" d="M20.129,42.88c-0.062,0-0.126-0.016-0.184-0.049l-5.882-3.325c-0.18-0.102-0.244-0.33-0.142-0.511
			c0.103-0.18,0.332-0.243,0.511-0.142l5.882,3.325c0.18,0.102,0.244,0.33,0.142,0.511C20.387,42.812,20.26,42.88,20.129,42.88z"/>
		<path class="st0" d="M25.755,26.769c-0.065,0-0.13-0.017-0.19-0.052l-5.626-3.325c-0.178-0.105-0.237-0.335-0.132-0.514
			c0.105-0.178,0.334-0.237,0.514-0.132l5.626,3.325c0.178,0.105,0.237,0.335,0.132,0.514
			C26.008,26.703,25.883,26.769,25.755,26.769z"/>
		<path class="st0" d="M37.008,20.119c-0.062,0-0.124-0.015-0.182-0.047l-5.66-3.134c-0.182-0.101-0.247-0.329-0.146-0.51
			c0.101-0.182,0.328-0.246,0.51-0.146l5.66,3.134c0.182,0.101,0.247,0.329,0.146,0.51C37.268,20.049,37.14,20.119,37.008,20.119z"
			/>
		<path class="st0" d="M37.008,33.162c-0.062,0-0.126-0.016-0.184-0.048l-5.66-3.178c-0.181-0.102-0.245-0.33-0.144-0.511
			c0.103-0.181,0.334-0.242,0.511-0.144l5.66,3.178c0.181,0.102,0.245,0.33,0.144,0.511C37.266,33.093,37.139,33.162,37.008,33.162z
			"/>
	</g>
	<polygon class="st1" points="21.851,59.48 47.85,45.01 40.887,40.842 14.888,55.312 	"/>
	<g>
		<polygon class="st2" points="10.87,36.462 2.15,41.497 2.15,31.428 10.87,26.393 		"/>
		<polygon class="st2" points="47.85,12.514 45.426,13.914 45.426,11.115 47.85,9.716 		"/>
		<polygon class="st2" points="10.424,6.651 5.115,9.716 5.115,3.586 10.424,0.52 		"/>
	</g>
	<g>
		<polygon class="st1" points="14.248,13.798 20.129,16.931 20.129,23.069 14.248,19.744 		"/>
		<polygon class="st1" points="20.129,23.069 31.348,16.61 37.008,19.744 25.756,26.393 		"/>
		<polygon class="st1" points="20.129,29.462 20.129,23.069 25.756,26.393 25.756,32.608 		"/>
		<polygon class="st1" points="14.248,39.18 20.129,42.505 20.129,48.514 14.248,45.573 		"/>
		<polygon class="st1" points="14.248,39.18 31.348,29.609 36.824,32.684 20.129,42.505 		"/>
	</g>
</g>
</svg>
