<?xml version="1.0" encoding="utf-8"?>
<!-- Generator: Adobe Illustrator 21.0.2, SVG Export Plug-In . SVG Version: 6.00 Build 0)  -->
<svg version="1.1" id="Layer_4" xmlns="http://www.w3.org/2000/svg" xmlns:xlink="http://www.w3.org/1999/xlink" x="0px" y="0px"
	 viewBox="0 0 50 60" style="enable-background:new 0 0 50 60;" xml:space="preserve">
<style type="text/css">
	.st0{fill:#0A6DD3;}
	.st1{fill:none;stroke:#0A6DD3;stroke-width:0.75;stroke-linecap:round;stroke-linejoin:round;stroke-miterlimit:10;}
	.st2{opacity:0.1;fill:#0A6DD3;}
	.st3{fill:#FFDF38;}
</style>
<g>
	<g>
		<path class="st0" d="M36.855,44.535c-0.066,0-0.133-0.018-0.191-0.053c-0.114-0.067-0.184-0.189-0.184-0.322v-12.39l-17.617,9.466
			c-0.113,0.062-0.251,0.061-0.364-0.005l-5.695-3.254c-0.117-0.066-0.189-0.19-0.189-0.325V17.314c0-0.128,0.065-0.248,0.174-0.316
			l5.966-3.796c0.118-0.077,0.27-0.079,0.392-0.006l5.966,3.525c0.114,0.067,0.184,0.19,0.184,0.323v6.408l5.487-3.102V7.009
			c0-0.13,0.067-0.25,0.178-0.319l5.695-3.525c0.119-0.074,0.269-0.074,0.388-0.004l5.966,3.525c0.114,0.067,0.185,0.19,0.185,0.323
			v33.897c0,0.138-0.075,0.264-0.195,0.329l-5.966,3.254C36.979,44.52,36.917,44.535,36.855,44.535z M36.855,30.769
			c0.066,0,0.133,0.018,0.192,0.053c0.113,0.067,0.183,0.19,0.183,0.322v12.385l5.216-2.845V7.223L36.86,3.922l-5.325,3.296v13.35
			c0,0.135-0.073,0.26-0.19,0.327l-6.237,3.525c-0.116,0.065-0.258,0.064-0.374-0.003c-0.115-0.067-0.186-0.19-0.186-0.324v-6.837
			l-5.583-3.299l-5.599,3.562v19.915l5.325,3.043l17.986-9.665C36.733,30.783,36.795,30.769,36.855,30.769z"/>
		<path class="st1" d="M12.991,17.314"/>
		<path class="st0" d="M18.686,41.281c-0.207,0-0.375-0.168-0.375-0.375V20.568c0-0.135,0.073-0.26,0.19-0.327l6.237-3.525
			c0.179-0.102,0.408-0.039,0.511,0.142c0.102,0.18,0.038,0.409-0.142,0.511l-6.047,3.417v20.12
			C19.061,41.113,18.893,41.281,18.686,41.281z"/>
		<path class="st0" d="M18.686,20.943c-0.063,0-0.127-0.016-0.186-0.049l-5.695-3.254c-0.18-0.103-0.242-0.332-0.14-0.512
			c0.103-0.179,0.331-0.244,0.512-0.14l5.695,3.254c0.18,0.103,0.242,0.332,0.14,0.512C18.942,20.875,18.816,20.943,18.686,20.943z"
			/>
		<path class="st0" d="M36.855,11.181c-0.072,0-0.146-0.021-0.208-0.063l-5.695-3.796c-0.172-0.115-0.219-0.348-0.104-0.52
			c0.116-0.173,0.352-0.217,0.521-0.104l5.492,3.661l5.76-3.665c0.174-0.111,0.406-0.061,0.518,0.115
			c0.111,0.175,0.06,0.406-0.115,0.518l-5.966,3.796C36.995,11.161,36.926,11.181,36.855,11.181z"/>
		<path class="st0" d="M36.855,24.197c-0.064,0-0.128-0.017-0.187-0.049l-5.695-3.254c-0.18-0.103-0.242-0.332-0.139-0.512
			c0.103-0.18,0.331-0.243,0.512-0.14l5.134,2.934V10.806c0-0.207,0.168-0.375,0.375-0.375s0.375,0.168,0.375,0.375v13.017
			c0,0.134-0.071,0.257-0.187,0.324C36.985,24.18,36.921,24.197,36.855,24.197z"/>
		<path class="st0" d="M24.923,30.977c-0.065,0-0.13-0.017-0.188-0.051c-0.116-0.067-0.187-0.191-0.187-0.324v-6.508
			c0-0.207,0.168-0.375,0.375-0.375s0.375,0.168,0.375,0.375v5.864l11.372-6.461c0.179-0.101,0.408-0.04,0.512,0.141
			c0.103,0.18,0.039,0.409-0.141,0.511l-11.933,6.779C25.051,30.96,24.987,30.977,24.923,30.977z"/>
		<path class="st0" d="M36.855,44.535c-0.057,0-0.114-0.013-0.168-0.04l-5.967-2.982c-0.127-0.063-0.207-0.193-0.207-0.335V34.35
			c0-0.207,0.168-0.375,0.375-0.375s0.375,0.168,0.375,0.375v6.597l5.76,2.879c0.185,0.092,0.26,0.317,0.167,0.503
			C37.125,44.459,36.993,44.535,36.855,44.535z"/>
	</g>
	<polygon class="st2" points="37.186,56.516 29.234,51.926 37.186,47.335 45.137,51.926 	"/>
	<g>
		<polygon class="st3" points="11.815,14.918 4.863,18.931 4.863,10.905 11.815,6.891 		"/>
		<polygon class="st3" points="8.339,36.66 5.915,38.059 5.915,35.261 8.339,33.861 		"/>
		<polygon class="st3" points="25.162,47.117 19.853,50.182 19.853,44.052 25.162,40.986 		"/>
	</g>
	<g>
		<polygon class="st2" points="12.991,17.548 12.991,37.652 18.686,40.906 18.686,20.568 		"/>
		<polygon class="st2" points="24.923,23.822 31.16,20.446 36.855,23.822 24.923,30.602 		"/>
		<polygon class="st2" points="31.16,7.154 36.855,10.806 36.855,23.822 31.16,20.446 		"/>
		<polygon class="st2" points="30.889,34.349 36.855,31.144 36.855,44.16 30.889,41.177 		"/>
	</g>
</g>
</svg>
