<?xml version="1.0" encoding="utf-8"?>
<!-- Generator: Adobe Illustrator 21.0.2, SVG Export Plug-In . SVG Version: 6.00 Build 0)  -->
<svg version="1.1" id="Layer_5" xmlns="http://www.w3.org/2000/svg" xmlns:xlink="http://www.w3.org/1999/xlink" x="0px" y="0px"
	 viewBox="0 0 50 60" style="enable-background:new 0 0 50 60;" xml:space="preserve">
<style type="text/css">
	.st0{fill:#0A6DD3;}
	.st1{fill:#FFDF38;}
	.st2{opacity:0.1;fill:#0A6DD3;}
</style>
<g>
	<g>
		<path class="st0" d="M25.824,45.828c-0.101,0-0.2-0.03-0.284-0.089L6.104,32.335c-0.225-0.154-0.284-0.461-0.132-0.688
			l5.361-8.042c0.075-0.113,0.193-0.19,0.326-0.214c0.133-0.025,0.27,0.006,0.381,0.085l13.617,9.727L40.131,6.885
			c0.065-0.118,0.174-0.204,0.303-0.241c0.129-0.035,0.267-0.019,0.384,0.047l4.691,2.681c0.236,0.135,0.321,0.435,0.19,0.674
			L26.263,45.568c-0.067,0.124-0.186,0.214-0.323,0.246C25.901,45.823,25.863,45.828,25.824,45.828z M7.077,31.792l18.575,12.81
			L44.587,9.997l-3.824-2.185l-14.5,26.364c-0.069,0.125-0.188,0.215-0.328,0.246c-0.139,0.032-0.285,0.002-0.401-0.08
			l-13.655-9.753L7.077,31.792z"/>
		<path class="st0" d="M19.649,30.024c-0.079,0-0.16-0.019-0.234-0.059c-0.244-0.13-0.336-0.433-0.207-0.676L33.091,3.205
			c0.13-0.244,0.434-0.335,0.675-0.208l7.508,3.956c0.244,0.129,0.338,0.431,0.209,0.675c-0.13,0.245-0.434,0.336-0.676,0.209
			l-7.067-3.724L20.091,29.759C20.001,29.928,19.828,30.024,19.649,30.024z"/>
		<path class="st0" d="M12.508,36.645c-0.093,0-0.187-0.025-0.27-0.079c-0.232-0.149-0.299-0.459-0.15-0.691l5.167-8.031
			c0.149-0.232,0.459-0.299,0.691-0.15c0.232,0.149,0.299,0.458,0.15,0.691l-5.167,8.031C12.833,36.563,12.672,36.645,12.508,36.645
			z"/>
	</g>
	<g>
		<polygon class="st1" points="11.691,16.511 4.739,20.524 4.739,12.497 11.691,8.484 		"/>
		<polygon class="st1" points="41.04,37.648 38.617,39.047 38.617,36.248 41.04,34.849 		"/>
		<polygon class="st1" points="13.524,47.926 9.857,50.044 9.857,45.809 13.524,43.691 		"/>
	</g>
	<path class="st2" d="M30.042,55.552c-2.33,1.345-6.107,1.345-8.436,0s-2.33-3.526,0-4.871s6.107-1.345,8.436,0
		S32.372,54.207,30.042,55.552z"/>
	<g>
		<polygon class="st2" points="6.388,31.924 11.75,23.881 17.675,28.114 12.508,36.145 		"/>
		<polygon class="st2" points="33.422,3.646 19.65,29.524 25.824,33.935 40.569,7.126 		"/>
	</g>
</g>
</svg>
