<?xml version="1.0" encoding="utf-8"?>
<!-- Generator: Adobe Illustrator 21.0.2, SVG Export Plug-In . SVG Version: 6.00 Build 0)  -->
<svg version="1.1" id="Layer_3" xmlns="http://www.w3.org/2000/svg" xmlns:xlink="http://www.w3.org/1999/xlink" x="0px" y="0px"
	 viewBox="0 0 40 40" style="enable-background:new 0 0 40 40;" xml:space="preserve">
<style type="text/css">
	.st0{fill:#0A6DD3;}
	.st1{fill:#FFFFFF;}
	.st2{fill:#FFD811;}
</style>
<g>
	<g>
		<path class="st0" d="M28.708,15.499h-1.25c0-4.74-3.399-6.899-6.558-6.899s-6.557,2.159-6.557,6.899h-1.25
			c0-5.35,3.928-8.149,7.807-8.149C24.78,7.349,28.708,10.149,28.708,15.499z"/>
		<rect x="11.184" y="14.874" class="st0" width="19.435" height="1.25"/>
		<g>
			<path class="st1" d="M23.013,6.626v4.225"/>
			<rect x="22.388" y="6.626" class="st0" width="1.25" height="4.225"/>
		</g>
		<g>
			<path class="st1" d="M18.788,10.851V6.626"/>
			<rect x="18.163" y="6.626" class="st0" width="1.25" height="4.225"/>
		</g>
		<path class="st0" d="M20.9,27.214L20.9,27.214c-2.982,0-6.814-2.715-7.802-10.368l1.239-0.16c0.827,6.409,3.892,9.278,6.562,9.278
			c2.671,0,5.735-2.868,6.562-9.278l1.24,0.16C27.715,24.498,23.883,27.214,20.9,27.214z"/>
		<path class="st0" d="M34.859,38.753H6.714l1.048-7.864c0.09-0.675,0.376-1.295,0.805-1.748c0.339-0.358,0.752-0.479,1.116-0.584
			c0.143-0.042,0.292-0.084,0.44-0.147l2.147-0.957l3.697-1.938l0.447,7.952h8.746l0.447-7.952l4.195,2.226l1.637,0.664
			c1.067,0.437,2.185,1.074,2.371,2.485L34.859,38.753z M8.142,37.503h25.29l-0.859-6.448c-0.087-0.653-0.507-1.044-1.606-1.494
			l-1.715-0.702l-0.533-0.304l-1.972-1.032l-0.404,7.194H15.232l-0.404-7.194l-2.564,1.32l-1.644,0.713
			c-0.198,0.086-0.396,0.146-0.588,0.201C9.752,29.838,9.576,29.892,9.475,30c-0.25,0.264-0.418,0.638-0.473,1.055L8.142,37.503z"/>
	</g>
	<rect y="18.453" class="st2" width="6.449" height="6.449"/>
	<rect x="36.07" y="19.713" class="st2" width="3.93" height="3.93"/>
	<rect x="26.839" y="1.247" class="st2" width="2.488" height="2.488"/>
</g>
</svg>
