<?xml version="1.0" encoding="utf-8"?>
<!-- Generator: Adobe Illustrator 21.0.2, SVG Export Plug-In . SVG Version: 6.00 Build 0)  -->
<svg version="1.1" id="Layer_1" xmlns="http://www.w3.org/2000/svg" xmlns:xlink="http://www.w3.org/1999/xlink" x="0px" y="0px"
	 viewBox="0 0 40 40" style="enable-background:new 0 0 40 40;" xml:space="preserve">
<style type="text/css">
	.st0{fill:#0A6DD3;}
	.st1{fill:#FFD811;}
</style>
<g>
	<g>
		<path class="st0" d="M29.498,38.617H12.402v-1.25h17.096c2.058,0,3.165-0.87,3.386-2.659l1.78-11.373
			c0.154-0.964-0.228-1.933-0.974-2.47c-0.379-0.275-0.822-0.434-1.29-0.463l-0.161,0.002H23.15V13.27
			c0-1.46-0.347-2.455-1.03-2.956c-0.628-0.461-1.488-0.489-2.093-0.435v4.688c0,2.533-1.221,4.739-3.53,6.379
			c-1.682,1.199-3.31,1.651-3.378,1.67l-0.516,0.176l-0.4-1.184l0.552-0.187c0.05-0.016,1.515-0.422,3.019-1.494
			c1.966-1.397,3.005-3.25,3.005-5.361V8.821l0.507-0.098c0.824-0.159,2.384-0.294,3.576,0.583c1.021,0.75,1.54,2.083,1.54,3.963
			v5.884l7.839-0.007c0.793,0,1.548,0.244,2.184,0.705c1.124,0.81,1.704,2.255,1.476,3.679l-1.777,11.331
			C33.826,37.283,32.183,38.617,29.498,38.617z"/>
		<path class="st0" d="M13.027,39.93h-7.19V19.162h7.19V39.93z M7.087,38.68h4.69V20.412h-4.69V38.68z"/>
		<rect x="27.569" y="24.59" class="st0" width="7.753" height="1.25"/>
		<rect x="27.569" y="28.547" class="st0" width="7.256" height="1.25"/>
		<rect x="27.569" y="32.505" class="st0" width="5.937" height="1.25"/>
	</g>
	<rect x="31.553" y="7.989" class="st1" width="6.771" height="6.771"/>
	<rect x="6.077" y="0.695" class="st1" width="4.126" height="4.126"/>
	<rect x="1.676" y="13.051" class="st1" width="2.612" height="2.612"/>
</g>
</svg>
