<?xml version="1.0" encoding="utf-8"?>
<!-- Generator: Adobe Illustrator 21.0.2, SVG Export Plug-In . SVG Version: 6.00 Build 0)  -->
<svg version="1.1" id="Layer_2" xmlns="http://www.w3.org/2000/svg" xmlns:xlink="http://www.w3.org/1999/xlink" x="0px" y="0px"
	 viewBox="0 0 40 40" style="enable-background:new 0 0 40 40;" xml:space="preserve">
<style type="text/css">
	.st0{fill:#0A6DD3;}
	.st1{fill:#FFD811;}
</style>
<g>
	<g>
		<polygon class="st0" points="31.25,35.876 8.777,35.876 8.777,4.124 23.162,4.124 23.162,5.374 10.027,5.374 10.027,34.626 
			30,34.626 30,12.213 31.25,12.213 		"/>
		<path class="st0" d="M30.625,12.838h-7.464c-0.345,0-0.625-0.28-0.625-0.625V4.749c0-0.253,0.152-0.48,0.386-0.578
			c0.23-0.095,0.501-0.044,0.682,0.136l7.464,7.464c0.179,0.179,0.231,0.448,0.135,0.681S30.878,12.838,30.625,12.838z
			 M23.787,11.587l5.33,0l-5.33-5.33V11.587z"/>
		<rect x="13.979" y="10.26" class="st0" width="6.034" height="1.25"/>
		<rect x="13.979" y="15.97" class="st0" width="12.068" height="1.25"/>
		<rect x="13.979" y="19.303" class="st0" width="12.068" height="1.25"/>
		<rect x="13.979" y="22.637" class="st0" width="12.068" height="1.25"/>
		<rect x="13.979" y="25.97" class="st0" width="6.034" height="1.25"/>
	</g>
	<rect x="33.73" y="5.377" class="st1" width="6.208" height="6.208"/>
	<rect x="1.763" y="24.704" class="st1" width="3.783" height="3.783"/>
	<rect x="0.062" y="12.87" class="st1" width="2.395" height="2.395"/>
</g>
</svg>
