<svg 
 xmlns="http://www.w3.org/2000/svg"
 xmlns:xlink="http://www.w3.org/1999/xlink"
 width="71px" height="61px">
<path fill-rule="evenodd"  opacity="0.078" fill="rgb(63, 63, 63)"
 d="M70.998,38.808 L70.998,49.895 C70.998,56.021 66.110,60.986 60.079,60.986 L49.159,60.986 C43.128,60.986 38.238,56.021 38.238,49.895 L38.238,38.808 L38.238,27.716 C38.238,12.406 50.461,-0.006 65.539,-0.006 C68.554,-0.006 70.998,2.475 70.998,5.539 C70.998,8.601 68.554,11.083 65.539,11.083 C56.492,11.083 49.159,18.529 49.159,27.716 L60.079,27.716 C66.110,27.716 70.998,32.678 70.998,38.808 ZM21.858,60.986 L10.938,60.986 C4.907,60.986 0.018,56.021 0.018,49.895 L0.018,38.808 L0.018,27.716 C0.018,12.406 12.241,-0.006 27.318,-0.006 C30.334,-0.006 32.778,2.475 32.778,5.539 C32.778,8.601 30.334,11.083 27.318,11.083 C18.271,11.083 10.938,18.529 10.938,27.716 L21.858,27.716 C27.889,27.716 32.778,32.678 32.778,38.808 L32.778,49.895 C32.778,56.021 27.889,60.986 21.858,60.986 Z"/>
</svg>