<?xml version="1.0" encoding="utf-8"?>
<!-- Generator: Adobe Illustrator 21.0.2, SVG Export Plug-In . SVG Version: 6.00 Build 0)  -->
<svg version="1.1" id="Layer_2" xmlns="http://www.w3.org/2000/svg" xmlns:xlink="http://www.w3.org/1999/xlink" x="0px" y="0px"
	 viewBox="0 0 80 80" style="enable-background:new 0 0 80 80;" xml:space="preserve">
<style type="text/css">
	.st0{opacity:0.1;fill:#0A6DD3;}
	.st1{fill:#FFFFFF;}
	.st2{fill:#0A6DD3;}
	.st3{opacity:0.5;}
	.st4{fill:#FFD811;}
	.st5{font-family:'Panton-Bold';}
	.st6{font-size:21.4155px;}
	.st7{font-size:7.6974px;}
</style>
<g>
	<g>
		<polygon class="st0" points="27.359,70.667 3.52,57.664 26.275,43.401 		"/>
		<g>
			<polygon class="st1" points="58.022,1.661 57.963,53.102 27.868,70.432 25.89,69.442 25.948,18.002 56.043,0.672 			"/>
			<path class="st2" d="M27.868,70.926c-0.076,0-0.152-0.017-0.221-0.052l-1.979-0.989c-0.168-0.084-0.273-0.255-0.273-0.443
				l0.058-51.44c0-0.177,0.095-0.34,0.248-0.428l30.096-17.33c0.143-0.083,0.319-0.088,0.468-0.014l1.979,0.989
				c0.168,0.084,0.273,0.256,0.273,0.443l-0.059,51.442c0,0.177-0.095,0.339-0.248,0.428L28.115,70.86
				C28.039,70.904,27.954,70.926,27.868,70.926z M26.385,69.137l1.467,0.733l29.616-17.054l0.059-50.849L56.06,1.233L26.442,18.288
				L26.385,69.137z"/>
		</g>
		<path class="st2" d="M27.868,70.926L27.868,70.926c-0.274,0-0.495-0.222-0.495-0.496l0.058-51.44c0-0.177,0.095-0.34,0.248-0.428
			l30.096-17.33c0.234-0.137,0.538-0.056,0.675,0.182c0.136,0.237,0.055,0.539-0.182,0.675L28.42,19.277l-0.057,51.155
			C28.363,70.705,28.141,70.926,27.868,70.926z"/>
		<g>
			<polygon class="st1" points="55.238,20.189 30.684,34.328 30.699,21.578 55.253,7.438 			"/>
			<path class="st2" d="M30.685,34.822c-0.086,0-0.171-0.022-0.248-0.067c-0.153-0.088-0.247-0.252-0.247-0.428l0.014-12.75
				c0-0.177,0.095-0.34,0.248-0.428L55.007,7.01c0.155-0.088,0.341-0.087,0.495,0c0.153,0.088,0.246,0.252,0.246,0.428l-0.014,12.75
				c0,0.177-0.095,0.34-0.248,0.428L30.931,34.756C30.855,34.8,30.77,34.822,30.685,34.822z M31.193,21.863L31.18,33.472
				l23.564-13.569l0.014-11.608L31.193,21.863z M55.239,20.189h0.01H55.239z"/>
		</g>
		<polygon class="st0" points="55.238,20.189 30.684,34.328 30.699,21.578 55.253,7.438 		"/>
		<g>
			<polygon class="st1" points="54.238,43.822 54.23,51.047 47.969,54.653 47.977,47.428 47.98,44.855 47.988,37.63 54.249,34.024 
				54.241,41.249 			"/>
			<path class="st2" d="M47.969,55.147c-0.086,0-0.171-0.022-0.248-0.067c-0.153-0.089-0.246-0.252-0.246-0.429l0.019-17.023
				c0-0.177,0.095-0.34,0.248-0.428l6.261-3.605c0.155-0.087,0.342-0.088,0.495,0c0.153,0.088,0.246,0.252,0.246,0.428l-0.011,9.798
				l0,0l-0.009,7.225c0,0.177-0.095,0.339-0.248,0.428l-6.261,3.606C48.139,55.125,48.054,55.147,47.969,55.147z M48.482,37.915
				l-0.018,15.881l5.271-3.036l0.018-15.881L48.482,37.915z M54.239,43.822h0.01H54.239z"/>
		</g>
		<g class="st3">
			<g>
				<polygon class="st1" points="38.525,40.007 32.264,43.612 32.272,36.387 38.533,32.782 				"/>
				<path class="st2" d="M32.264,44.107c-0.085,0-0.171-0.022-0.248-0.067c-0.153-0.089-0.247-0.252-0.247-0.429l0.008-7.225
					c0-0.177,0.095-0.34,0.248-0.428l6.261-3.606c0.153-0.088,0.341-0.089,0.495,0c0.153,0.088,0.247,0.252,0.247,0.428
					l-0.008,7.225c0,0.177-0.095,0.34-0.248,0.428l-6.261,3.607C32.434,44.085,32.349,44.107,32.264,44.107z M32.766,36.673
					l-0.007,6.084l5.271-3.036l0.007-6.083L32.766,36.673z M38.525,40.007h0.01H38.525z"/>
			</g>
			<g>
				<polygon class="st1" points="46.491,35.729 40.229,39.335 40.238,32.11 46.499,28.504 				"/>
				<path class="st2" d="M40.229,39.829c-0.086,0-0.171-0.022-0.248-0.067c-0.153-0.088-0.247-0.252-0.247-0.428l0.008-7.225
					c0-0.177,0.095-0.34,0.248-0.428l6.262-3.606c0.155-0.088,0.341-0.087,0.495,0c0.153,0.088,0.246,0.252,0.246,0.428
					l-0.009,7.225c0,0.177-0.095,0.34-0.247,0.428l-6.261,3.606C40.4,39.807,40.314,39.829,40.229,39.829z M40.732,32.396
					l-0.007,6.083l5.271-3.035l0.008-6.083L40.732,32.396z M46.49,35.729h0.01H46.49z"/>
			</g>
			<g>
				<polygon class="st1" points="54.252,31.451 47.991,35.057 47.999,27.832 54.26,24.226 				"/>
				<path class="st2" d="M47.991,35.551c-0.086,0-0.171-0.022-0.248-0.067c-0.153-0.088-0.246-0.252-0.246-0.428l0.009-7.225
					c0-0.177,0.095-0.34,0.248-0.428l6.261-3.606c0.154-0.088,0.341-0.087,0.495,0c0.153,0.088,0.246,0.252,0.246,0.428
					l-0.009,7.225c0,0.177-0.095,0.34-0.248,0.428l-6.261,3.606C48.161,35.529,48.076,35.551,47.991,35.551z M48.494,28.118
					L48.486,34.2l5.271-3.035l0.008-6.083L48.494,28.118z M54.252,31.451h0.01H54.252z"/>
			</g>
			<g>
				<polygon class="st1" points="38.514,49.805 32.253,53.41 32.261,46.185 38.522,42.58 				"/>
				<path class="st2" d="M32.253,53.905c-0.086,0-0.171-0.022-0.248-0.067c-0.153-0.089-0.247-0.252-0.247-0.429l0.008-7.225
					c0-0.176,0.095-0.339,0.248-0.428l6.261-3.606c0.152-0.087,0.342-0.088,0.495,0.001s0.247,0.252,0.247,0.429l-0.008,7.225
					c0,0.176-0.095,0.339-0.248,0.428l-6.261,3.606C32.423,53.883,32.338,53.905,32.253,53.905z M32.755,46.471l-0.007,6.083
					l5.271-3.036l0.007-6.083L32.755,46.471z M38.514,49.805h0.01H38.514z"/>
			</g>
			<g>
				<polygon class="st1" points="46.48,45.527 40.218,49.133 40.226,41.908 46.488,38.302 				"/>
				<path class="st2" d="M40.218,49.628c-0.086,0-0.171-0.022-0.248-0.067c-0.153-0.089-0.247-0.252-0.247-0.429l0.008-7.226
					c0-0.176,0.095-0.339,0.248-0.428l6.26-3.605c0.156-0.088,0.344-0.087,0.495,0c0.154,0.088,0.247,0.252,0.247,0.428
					l-0.008,7.226c0,0.176-0.095,0.339-0.248,0.428l-6.261,3.606C40.389,49.606,40.303,49.628,40.218,49.628z M40.721,42.193
					l-0.007,6.084l5.271-3.036l0.007-6.084L40.721,42.193z M46.48,45.528h0.01H46.48z"/>
			</g>
			<g>
				<polygon class="st1" points="38.503,59.603 32.241,63.208 32.25,55.983 38.511,52.378 				"/>
				<path class="st2" d="M32.241,63.703c-0.085,0-0.171-0.022-0.248-0.067c-0.153-0.089-0.247-0.252-0.247-0.429l0.008-7.226
					c0-0.176,0.095-0.339,0.248-0.428l6.261-3.606c0.153-0.088,0.341-0.088,0.495,0.001c0.153,0.089,0.247,0.252,0.247,0.429
					l-0.008,7.226c0,0.176-0.095,0.339-0.248,0.428l-6.261,3.606C32.412,63.681,32.327,63.703,32.241,63.703z M32.744,56.269
					l-0.007,6.084l5.271-3.036l0.007-6.084L32.744,56.269z M38.502,59.603h0.01H38.502z"/>
			</g>
			<g>
				<polygon class="st1" points="46.468,55.325 40.207,58.931 40.215,51.706 46.477,48.1 				"/>
				<path class="st2" d="M40.207,59.425c-0.085,0-0.171-0.022-0.248-0.067c-0.153-0.089-0.247-0.252-0.247-0.429l0.008-7.225
					c0-0.176,0.095-0.339,0.248-0.428l6.262-3.606c0.154-0.087,0.342-0.087,0.495,0.001c0.153,0.089,0.246,0.252,0.246,0.429
					l-0.009,7.225c0,0.177-0.095,0.339-0.247,0.428l-6.261,3.606C40.378,59.403,40.292,59.425,40.207,59.425z M40.71,51.992
					l-0.007,6.083l5.271-3.036l0.008-6.083L40.71,51.992z M46.468,55.325h0.01H46.468z"/>
			</g>
		</g>
		<path class="st0" d="M70.07,37.905c0,8.983-6.307,19.907-14.087,24.399s-14.087,0.851-14.087-8.133s6.307-19.907,14.087-24.399
			S70.07,28.922,70.07,37.905z"/>
		<path class="st2" d="M27.926,19.486c-0.074,0-0.15-0.017-0.221-0.052l-1.979-0.989c-0.244-0.122-0.343-0.419-0.221-0.664
			c0.122-0.245,0.419-0.343,0.664-0.221l1.979,0.989c0.244,0.122,0.343,0.419,0.221,0.664
			C28.282,19.386,28.107,19.486,27.926,19.486z"/>
	</g>
	<g>
		<g>
			<path class="st1" d="M73.369,39.005c0,8.983-6.307,19.907-14.087,24.399s-14.087,0.851-14.087-8.133s6.307-19.907,14.087-24.399
				S73.369,30.021,73.369,39.005z"/>
			<path class="st2" d="M52.99,65.828c-1.426,0-2.748-0.334-3.917-1.01c-2.819-1.628-4.373-5.019-4.373-9.547
				c0-9.127,6.431-20.264,14.334-24.827c3.921-2.264,7.634-2.616,10.454-0.986c2.82,1.628,4.374,5.019,4.374,9.548
				c0,9.126-6.43,20.264-14.333,24.827C57.233,65.158,55.007,65.828,52.99,65.828z M65.571,29.438c-1.841,0-3.898,0.626-6.041,1.863
				c-7.631,4.406-13.84,15.158-13.84,23.97c0,4.16,1.378,7.247,3.878,8.691c2.503,1.444,5.864,1.093,9.467-0.986
				c7.63-4.406,13.839-15.159,13.839-23.971c0-4.161-1.378-7.247-3.879-8.691C67.982,29.729,66.827,29.438,65.571,29.438z"/>
		</g>
		<g>
			<path class="st4" d="M75.985,40.028c0,8.983-6.307,19.907-14.087,24.399c-7.78,4.492-14.087,0.851-14.087-8.133
				s6.307-19.907,14.087-24.399S75.985,31.045,75.985,40.028z"/>
			<path class="st2" d="M55.606,66.852c-1.426,0-2.747-0.335-3.915-1.009c-2.82-1.629-4.374-5.02-4.374-9.549
				c0-9.126,6.43-20.263,14.333-24.827c3.924-2.264,7.636-2.614,10.456-0.986c2.82,1.628,4.373,5.019,4.373,9.548
				c0,9.127-6.431,20.263-14.334,24.826C59.848,66.182,57.622,66.852,55.606,66.852z M68.188,30.461
				c-1.841,0-3.899,0.626-6.042,1.863c-7.63,4.406-13.839,15.159-13.839,23.97c0,4.161,1.378,7.248,3.879,8.692
				c2.5,1.442,5.862,1.092,9.465-0.987c7.631-4.406,13.84-15.158,13.84-23.97c0-4.161-1.378-7.247-3.878-8.691
				C70.598,30.752,69.442,30.461,68.188,30.461z"/>
		</g>
		<text transform="matrix(0.866 -0.5 0 1 54.7961 59.9815)" class="st2 st5 st6">%</text>
	</g>
	<g>
		<g>
			<path class="st0" d="M42.044,79.193c-9.219-1.689-9.219-5.471-4.019-8.017"/>
			<g>
				<g>
					<g>
						<g>
							<g>
								<g>
									<path class="st1" d="M49.232,70.737c-2.914-1.682-7.638-1.682-10.551,0c-1.457,0.841-2.186,1.944-2.186,3.046
										c0,1.102,0.728,2.205,2.185,3.046c2.914,1.682,7.637,1.682,10.551,0c1.457-0.841,2.185-1.943,2.185-3.046
										C51.417,72.68,50.688,71.578,49.232,70.737z"/>
									<path class="st2" d="M43.956,78.575c-2,0-4-0.44-5.523-1.319c-1.569-0.904-2.433-2.138-2.433-3.473
										c0-1.334,0.864-2.569,2.433-3.474c3.045-1.757,7.999-1.759,11.045,0l0,0c1.569,0.905,2.433,2.139,2.433,3.473
										c0,1.335-0.864,2.569-2.432,3.474C47.957,78.135,45.956,78.575,43.956,78.575z M43.956,69.965
										c-1.821,0-3.642,0.4-5.028,1.2c-1.25,0.723-1.938,1.652-1.938,2.618c0,0.966,0.688,1.896,1.938,2.617
										c2.773,1.6,7.284,1.6,10.057,0c1.249-0.722,1.937-1.651,1.937-2.618c0-0.966-0.688-1.895-1.938-2.617
										C47.598,70.365,45.776,69.965,43.956,69.965z"/>
								</g>
							</g>
						</g>
					</g>
				</g>
				<g>
					<path class="st1" d="M49.232,76.828c-2.914,1.682-7.638,1.682-10.551,0c-1.457-0.841-2.185-1.943-2.185-3.046v1.248
						c0,1.102,0.728,2.205,2.185,3.046c2.914,1.682,7.637,1.682,10.551,0c1.457-0.841,2.185-1.943,2.185-3.046v-1.248
						C51.417,74.885,50.688,75.987,49.232,76.828z"/>
					<path class="st2" d="M43.956,79.823c-2,0-4-0.44-5.523-1.319c-1.569-0.904-2.433-2.138-2.433-3.473v-1.248
						c0-0.273,0.221-0.495,0.495-0.495c0.273,0,0.495,0.221,0.495,0.495c0,0.966,0.688,1.896,1.938,2.617
						c2.773,1.6,7.284,1.6,10.057,0l0,0c1.249-0.722,1.937-1.651,1.937-2.618c0-0.273,0.221-0.495,0.495-0.495
						s0.495,0.221,0.495,0.495v1.248c0,1.334-0.864,2.568-2.432,3.474C47.957,79.383,45.956,79.823,43.956,79.823z M38.003,76.988
						c0.261,0.234,0.57,0.455,0.925,0.66c2.773,1.6,7.284,1.6,10.057,0c0.353-0.204,0.66-0.424,0.921-0.657
						c-0.136,0.091-0.277,0.18-0.426,0.265l0,0c-3.046,1.759-8.001,1.757-11.046,0C38.284,77.17,38.14,77.08,38.003,76.988z
						 M49.232,76.828h0.01H49.232z"/>
				</g>
			</g>
			<text transform="matrix(0.866 -0.5 0.866 0.5 43.3446 76.1861)" class="st2 st5 st7">%</text>
		</g>
	</g>
</g>
</svg>
