<?xml version="1.0" encoding="utf-8"?>
<!-- Generator: Adobe Illustrator 21.0.2, SVG Export Plug-In . SVG Version: 6.00 Build 0)  -->
<svg version="1.1" id="Layer_2" xmlns="http://www.w3.org/2000/svg" xmlns:xlink="http://www.w3.org/1999/xlink" x="0px" y="0px"
	 viewBox="0 0 80 80" style="enable-background:new 0 0 80 80;" xml:space="preserve">
<style type="text/css">
	.st0{opacity:0.1;fill:#0A6DD3;}
	.st1{opacity:0.1;}
	.st2{fill:#FFFFFF;}
	.st3{fill:#0A6DD3;}
	.st4{fill:#FFD811;}
	.st5{font-family:'MyriadPro-Bold';}
	.st6{font-size:17.1501px;}
	.st7{font-size:15.8308px;}
</style>
<g>
	<g>
		<g>
			<path class="st0" d="M23.403,42.143c-3.876,2.238-10.159,2.238-14.035,0s-3.876-5.865,0-8.103c3.876-2.238,10.159-2.238,14.035,0
				S27.279,39.905,23.403,42.143z"/>
			<g class="st1">
				<line class="st2" x1="16.193" y1="44.539" x2="17.205" y2="49.884"/>
				
					<rect x="16.203" y="44.492" transform="matrix(0.9825 -0.1861 0.1861 0.9825 -8.4961 3.9335)" class="st3" width="0.993" height="5.439"/>
			</g>
			<path class="st0" d="M59.398,51.798c-4.632,0-9.264-1.02-12.798-3.06c-7.068-4.081-7.068-10.697,0-14.777s18.527-4.081,25.595,0"
				/>
		</g>
		<g>
			<g>
				<g>
					<path class="st2" d="M32.454,23.717l-4.86-2.621l-0.077-0.041c-1.32-0.92-2.125-2.688-2.125-5.137
						c0-5.236,3.676-11.602,8.21-14.22c2.182-1.26,4.166-1.422,5.636-0.667l-0.001,0.001l4.635,2.472"/>
					<path class="st3" d="M32.453,24.214c-0.08,0-0.161-0.019-0.235-0.06l-4.86-2.621c-0.016-0.009-0.11-0.06-0.125-0.07
						c-1.507-1.05-2.337-3.019-2.337-5.544c0-5.386,3.794-11.958,8.458-14.651c2.256-1.301,4.426-1.545,6.112-0.679l4.641,2.476
						c0.242,0.129,0.334,0.43,0.205,0.672C44.183,3.98,43.881,4.07,43.64,3.942L39.004,1.47c-1.365-0.702-3.199-0.471-5.153,0.658
						c-4.39,2.534-7.962,8.721-7.962,13.79c0,2.19,0.679,3.87,1.911,4.729l4.889,2.632c0.242,0.13,0.332,0.431,0.201,0.673
						C32.801,24.119,32.63,24.214,32.453,24.214z"/>
				</g>
				<path class="st0" d="M32.454,23.717l-4.86-2.621l-0.077-0.041c-1.32-0.92-2.125-2.688-2.125-5.137
					c0-5.236,3.676-11.602,8.21-14.22c2.182-1.26,4.166-1.422,5.636-0.667l-0.001,0.001l4.635,2.472"/>
				<g>
					<path class="st2" d="M46.453,8.913c0,5.236-3.676,11.602-8.21,14.22s-8.21,0.496-8.21-4.74s3.676-11.602,8.21-14.22
						S46.453,3.677,46.453,8.913z"/>
					<path class="st3" d="M34.575,24.755c-0.867,0-1.672-0.205-2.386-0.617c-1.711-0.988-2.653-3.028-2.653-5.745
						c0-5.386,3.794-11.957,8.458-14.65c2.353-1.359,4.592-1.562,6.303-0.575c1.711,0.988,2.653,3.028,2.653,5.745
						c0,5.385-3.795,11.957-8.459,14.65C37.12,24.355,35.787,24.755,34.575,24.755z M41.908,3.546c-1.036,0-2.2,0.355-3.416,1.058
						c-4.39,2.534-7.962,8.72-7.962,13.79c0,2.347,0.766,4.082,2.156,4.885c1.39,0.803,3.275,0.598,5.308-0.575
						c4.39-2.535,7.962-8.721,7.962-13.79c0-2.347-0.766-4.082-2.156-4.884C43.242,3.706,42.603,3.546,41.908,3.546z"/>
				</g>
			</g>
			<g>
				<g>
					<path class="st2" d="M10.489,74.143l-4.86-2.621l-0.077-0.041c-1.32-0.92-2.125-2.688-2.125-5.137
						c0-5.236,3.676-11.602,8.21-14.22c2.182-1.26,4.166-1.422,5.636-0.667l-0.001,0.001l4.635,2.472"/>
					<path class="st3" d="M10.489,74.64c-0.08,0-0.16-0.019-0.235-0.059l-4.86-2.621c-0.016-0.01-0.11-0.06-0.125-0.071
						c-1.507-1.051-2.337-3.02-2.337-5.545c0-5.385,3.794-11.957,8.458-14.649c2.256-1.305,4.427-1.546,6.112-0.679l4.641,2.475
						c0.242,0.129,0.334,0.43,0.205,0.672c-0.13,0.243-0.428,0.334-0.672,0.205l-4.635-2.471c-1.366-0.704-3.199-0.47-5.153,0.658
						c-4.39,2.534-7.962,8.721-7.962,13.79c0,2.191,0.679,3.87,1.912,4.73l4.888,2.631c0.242,0.131,0.332,0.432,0.201,0.673
						C10.837,74.546,10.665,74.64,10.489,74.64z"/>
				</g>
				<path class="st0" d="M10.489,74.143l-4.86-2.621l-0.077-0.041c-1.32-0.92-2.125-2.688-2.125-5.137
					c0-5.236,3.676-11.602,8.21-14.22c2.182-1.26,4.166-1.422,5.636-0.667l-0.001,0.001l4.635,2.472"/>
				<g>
					<path class="st2" d="M24.488,59.339c0,5.236-3.676,11.602-8.21,14.22c-4.534,2.618-8.21,0.496-8.21-4.74
						c0-5.236,3.676-11.602,8.21-14.22C20.813,51.981,24.488,54.104,24.488,59.339z"/>
					<path class="st3" d="M12.61,75.181c-0.867,0-1.672-0.205-2.386-0.617c-1.711-0.988-2.653-3.028-2.653-5.745
						c0-5.386,3.794-11.958,8.458-14.65c2.354-1.358,4.592-1.561,6.302-0.575c1.711,0.988,2.653,3.028,2.653,5.746
						c0,5.385-3.794,11.957-8.458,14.649C15.155,74.782,13.822,75.181,12.61,75.181z M19.943,53.972c-1.036,0-2.2,0.355-3.416,1.057
						c-4.39,2.534-7.962,8.721-7.962,13.791c0,2.347,0.766,4.082,2.156,4.884c1.389,0.804,3.275,0.598,5.309-0.574
						c4.39-2.535,7.962-8.721,7.962-13.79c0-2.347-0.766-4.083-2.156-4.885C21.276,54.132,20.638,53.972,19.943,53.972z"/>
				</g>
			</g>
			<g>
				<g>
					<path class="st2" d="M55.419,52.953l-7.344-3.961l-0.116-0.062c-1.995-1.39-3.21-4.062-3.21-7.762
						c0-7.911,5.554-17.532,12.406-21.487c3.298-1.904,6.295-2.149,8.517-1.008l-0.001,0.001l7.004,3.735"/>
					<path class="st3" d="M55.419,53.451c-0.081,0-0.161-0.019-0.236-0.059l-7.459-4.022c-2.257-1.569-3.473-4.471-3.473-8.201
						c0-8.058,5.677-17.889,12.654-21.918c3.332-1.924,6.525-2.285,8.993-1.02c0.015,0.008,0.029,0.016,0.043,0.025l6.966,3.714
						c0.242,0.13,0.334,0.43,0.205,0.672c-0.129,0.243-0.431,0.333-0.672,0.205l-7.003-3.735c-0.01-0.005-0.018-0.011-0.028-0.016
						c-2.151-1.084-4.992-0.723-8.005,1.015C50.7,23.981,45.246,33.427,45.246,41.169c0,3.396,1.064,6.008,2.997,7.355l0.066,0.031
						l7.346,3.962c0.242,0.131,0.332,0.432,0.202,0.673C55.766,53.356,55.596,53.451,55.419,53.451z"/>
				</g>
				<g>
					<path class="st4" d="M76.572,30.584c0,7.911-5.554,17.532-12.406,21.487s-12.406,0.749-12.406-7.162
						s5.554-17.532,12.406-21.487S76.572,22.672,76.572,30.584z"/>
					<path class="st3" d="M58.625,54.268c-1.266,0-2.44-0.298-3.478-0.898c-2.503-1.446-3.882-4.451-3.882-8.462
						c0-8.057,5.677-17.889,12.654-21.918c3.474-2.007,6.765-2.315,9.268-0.869c2.503,1.445,3.882,4.45,3.882,8.462
						c0,8.057-5.676,17.888-12.653,21.917C62.383,53.675,60.412,54.268,58.625,54.268z M69.705,22.219
						c-1.612,0-3.412,0.548-5.29,1.632c-6.704,3.87-12.158,13.316-12.158,21.057c0,3.641,1.202,6.341,3.385,7.601
						c2.184,1.262,5.124,0.951,8.275-0.868c6.704-3.87,12.157-13.317,12.157-21.057c0-3.641-1.202-6.341-3.385-7.602
						C71.807,22.472,70.8,22.219,69.705,22.219z"/>
				</g>
			</g>
			<g>
				<line class="st2" x1="29.897" y1="25.856" x2="19.688" y2="50.296"/>
				<path class="st3" d="M20.146,50.487l-0.917-0.382l1.018-2.436l0.917,0.382L20.146,50.487z M22.313,45.3l-0.917-0.382l1.149-2.75
					l0.917,0.382L22.313,45.3z M24.611,39.8l-0.917-0.383l1.149-2.75l0.917,0.383L24.611,39.8z M26.909,34.299l-0.917-0.383
					l1.149-2.75l0.917,0.383L26.909,34.299z M29.206,28.798l-0.917-0.383l1.149-2.75l0.917,0.383L29.206,28.798z"/>
			</g>
			<g>
				<line class="st2" x1="46.818" y1="18.906" x2="53.315" y2="26.331"/>
				<path class="st3" d="M52.333,25.963L50.37,23.72l0.747-0.654l1.963,2.243L52.333,25.963z M48.408,21.477l-1.963-2.243
					l0.747-0.654l1.963,2.243L48.408,21.477z"/>
			</g>
			<g>
				<line class="st2" x1="28.494" y1="63.339" x2="48.293" y2="52.202"/>
				<path class="st3" d="M28.737,63.772l-0.487-0.865l2.598-1.461l0.487,0.865L28.737,63.772z M33.933,60.85l-0.487-0.865
					l2.598-1.461l0.487,0.865L33.933,60.85z M39.129,57.927l-0.487-0.865L41.24,55.6l0.487,0.865L39.129,57.927z M44.325,55.005
					l-0.487-0.865l2.598-1.461l0.487,0.865L44.325,55.005z"/>
			</g>
			<text transform="matrix(0.866 -0.5 0 1 60.3974 46.3951)" class="st3 st5 st6">3</text>
		</g>
		<text transform="matrix(0.866 -0.5 0 1 13.2677 71.5025)" class="st3 st5 st7">1</text>
		<text transform="matrix(0.866 -0.5 0 1 34.3745 21.3721)" class="st3 st5 st7">2</text>
		<g class="st1">
			<line class="st2" x1="41.087" y1="39.786" x2="27.931" y2="38.806"/>
			
				<rect x="34.012" y="32.7" transform="matrix(0.0743 -0.9972 0.9972 0.0743 -7.2431 70.789)" class="st3" width="0.993" height="13.192"/>
		</g>
	</g>
	<g>
		<path class="st0" d="M44.746,77.247c-16.368-2.38-16.368-7.709-7.136-11.296"/>
		<g>
			<g>
				<path class="st2" d="M33.259,71.583v2.387c0,0,0,0,0,0c0.478,0.042,0.973,0.082,1.468,0.119
					c0.282,0.021,0.536,0.095,0.728,0.206c0.179,0.103,0.304,0.239,0.349,0.392c0.108,0.371,0.398,0.709,0.749,1.025"/>
				<path class="st3" d="M36.553,76.086c-0.089,0-0.179-0.032-0.25-0.096c-0.47-0.426-0.743-0.806-0.857-1.197
					c-0.012-0.042-0.065-0.11-0.177-0.174c-0.147-0.085-0.349-0.142-0.571-0.158c-0.495-0.037-0.992-0.078-1.472-0.119
					c-0.192-0.017-0.34-0.179-0.34-0.372l0-2.387h0.745v2.045c0.37,0.031,0.747,0.061,1.123,0.089
					c0.336,0.025,0.643,0.114,0.888,0.256c0.268,0.154,0.448,0.365,0.519,0.61c0.074,0.253,0.278,0.524,0.641,0.853
					c0.153,0.138,0.164,0.374,0.027,0.527C36.756,76.044,36.655,76.086,36.553,76.086z"/>
			</g>
			<g>
				<path class="st2" d="M35.597,67.175v0.819v1.344c0.306,0.24,0.626,0.485,0.949,0.726c0.272,0.204,0.319,0.481,0.095,0.703
					c-0.393,0.388-0.694,0.808-0.892,1.244"/>
				<path class="st3" d="M35.748,72.384c-0.052,0-0.104-0.011-0.154-0.034c-0.187-0.084-0.27-0.306-0.185-0.493
					c0.217-0.477,0.543-0.933,0.969-1.354c0.031-0.049,0.013-0.088-0.055-0.139c-0.326-0.244-0.648-0.491-0.956-0.733
					c-0.09-0.071-0.143-0.179-0.143-0.293v-2.163c0-0.206,0.167-0.373,0.373-0.373c0.206,0,0.373,0.167,0.373,0.373v1.981
					c0.26,0.202,0.529,0.408,0.8,0.609c0.231,0.173,0.368,0.402,0.385,0.645c0.016,0.225-0.074,0.446-0.252,0.622
					c-0.36,0.356-0.634,0.737-0.814,1.132C36.025,72.303,35.89,72.384,35.748,72.384z"/>
			</g>
			<g>
				<path class="st2" d="M51.403,68.633l-0.459-0.265c-0.414,0.176-0.838,0.361-1.257,0.547c-0.353,0.157-0.835,0.185-1.22,0.055
					c-0.673-0.227-1.398-0.4-2.153-0.515c-0.431-0.065-0.738-0.282-0.795-0.537c-0.068-0.303-0.142-0.607-0.218-0.901l-2.378,0
					c-0.077,0.295-0.151,0.599-0.219,0.902c-0.057,0.255-0.364,0.471-0.795,0.536c-0.755,0.114-1.481,0.288-2.154,0.515
					c-0.385,0.13-0.866,0.103-1.219-0.055c-0.418-0.186-0.843-0.371-1.258-0.548l-0.441,0.255"/>
				<path class="st3" d="M39.224,69.424c-0.294,0-0.589-0.056-0.84-0.168c-0.359-0.16-0.723-0.319-1.081-0.473l-0.28,0.161
					c-0.179,0.103-0.407,0.042-0.509-0.136c-0.103-0.178-0.042-0.406,0.136-0.508l0.441-0.255c0.101-0.06,0.225-0.067,0.333-0.02
					c0.417,0.179,0.843,0.363,1.263,0.55c0.275,0.123,0.656,0.14,0.947,0.042c0.691-0.233,1.437-0.411,2.218-0.53
					c0.315-0.048,0.473-0.185,0.487-0.248c0.069-0.307,0.144-0.614,0.221-0.914c0.043-0.165,0.191-0.279,0.361-0.279H45.3
					c0.17,0,0.317,0.114,0.361,0.278c0.078,0.298,0.152,0.606,0.221,0.914c0.014,0.063,0.172,0.201,0.488,0.249
					c0.779,0.118,1.524,0.297,2.216,0.53c0.286,0.096,0.675,0.08,0.949-0.042c0.42-0.187,0.846-0.373,1.261-0.55
					c0.109-0.047,0.233-0.04,0.333,0.02l0.46,0.266c0.179,0.103,0.24,0.331,0.136,0.508c-0.104,0.179-0.335,0.237-0.508,0.136
					l-0.299-0.172c-0.356,0.153-0.72,0.311-1.079,0.473c-0.443,0.197-1.028,0.224-1.491,0.067c-0.65-0.219-1.353-0.387-2.09-0.499
					c-0.587-0.09-1.009-0.406-1.103-0.824c-0.046-0.205-0.094-0.408-0.144-0.61h-1.799c-0.05,0.203-0.099,0.408-0.145,0.611
					c-0.095,0.419-0.517,0.734-1.103,0.823c-0.737,0.112-1.441,0.279-2.09,0.499C39.673,69.391,39.449,69.424,39.224,69.424z"/>
			</g>
			<g>
				<path class="st2" d="M52.473,72.011c-0.198-0.436-0.498-0.855-0.891-1.243c-0.225-0.222-0.177-0.501,0.095-0.704
					c0.323-0.242,0.643-0.487,0.948-0.726v-1.344v-0.762"/>
				<path class="st3" d="M52.473,72.384c-0.142,0-0.277-0.082-0.34-0.218c-0.179-0.395-0.453-0.775-0.814-1.132
					c-0.178-0.176-0.267-0.397-0.251-0.622c0.016-0.243,0.153-0.472,0.385-0.645c0.271-0.204,0.539-0.408,0.799-0.609v-1.924
					c0-0.206,0.167-0.373,0.373-0.373s0.373,0.167,0.373,0.373v2.105c0,0.114-0.052,0.222-0.143,0.293
					c-0.307,0.241-0.629,0.486-0.954,0.731c-0.07,0.052-0.088,0.093-0.089,0.101c0.458,0.461,0.784,0.917,1.001,1.394
					c0.084,0.187,0.002,0.408-0.185,0.494C52.577,72.373,52.524,72.384,52.473,72.384z"/>
			</g>
			<g>
				<path class="st2" d="M51.582,75.798c0.393-0.388,0.694-0.807,0.891-1.243c0.113-0.249,0.487-0.426,0.929-0.459
					c0.524-0.039,1.051-0.082,1.561-0.126v-2.387"/>
				<path class="st3" d="M51.581,76.171c-0.096,0-0.192-0.037-0.265-0.111c-0.145-0.147-0.144-0.382,0.003-0.527
					c0.361-0.358,0.636-0.739,0.814-1.133c0.169-0.373,0.644-0.632,1.24-0.676c0.408-0.03,0.816-0.062,1.217-0.096v-2.045
					c0-0.206,0.167-0.373,0.373-0.373c0.206,0,0.373,0.167,0.373,0.373v2.387c0,0.193-0.147,0.354-0.341,0.372
					c-0.511,0.045-1.04,0.087-1.566,0.126c-0.371,0.028-0.584,0.171-0.616,0.241c-0.217,0.477-0.543,0.933-0.969,1.355
					C51.771,76.135,51.676,76.171,51.581,76.171z"/>
			</g>
			<g>
				<path class="st2" d="M45.3,79.548c0.077-0.294,0.151-0.598,0.219-0.901c0.057-0.255,0.364-0.471,0.795-0.536
					c0.755-0.114,1.481-0.288,2.153-0.515c0.385-0.13,0.866-0.103,1.219,0.055c0.419,0.186,0.843,0.371,1.258,0.548l1.681-0.971
					v-1.266V74.52"/>
				<path class="st3" d="M45.3,79.921c-0.031,0-0.062-0.004-0.094-0.012c-0.199-0.052-0.318-0.255-0.267-0.455
					c0.076-0.29,0.148-0.59,0.215-0.889c0.094-0.418,0.516-0.734,1.102-0.824c0.734-0.11,1.438-0.277,2.091-0.499
					c0.464-0.156,1.05-0.13,1.489,0.067c0.36,0.16,0.724,0.319,1.081,0.473l1.334-0.77V74.52c0-0.206,0.167-0.373,0.373-0.373
					s0.373,0.167,0.373,0.373v2.708c0,0.133-0.071,0.256-0.186,0.323l-1.681,0.971c-0.101,0.057-0.223,0.066-0.333,0.019
					c-0.415-0.178-0.841-0.363-1.262-0.55c-0.271-0.121-0.66-0.138-0.948-0.042c-0.695,0.235-1.442,0.412-2.218,0.53
					c-0.314,0.048-0.473,0.186-0.486,0.249c-0.069,0.307-0.144,0.614-0.221,0.914C45.617,79.809,45.466,79.921,45.3,79.921z"/>
			</g>
			<g>
				<path class="st2" d="M42.922,79.548C42.922,79.548,42.922,79.548,42.922,79.548l2.378,0v-2.091"/>
				<path class="st3" d="M45.3,79.921h-2.378c-0.206,0-0.373-0.167-0.373-0.373c0-0.206,0.167-0.373,0.373-0.373h2.006v-1.718
					c0-0.206,0.167-0.373,0.373-0.373c0.206,0,0.373,0.167,0.373,0.373v2.091C45.672,79.754,45.505,79.921,45.3,79.921z"/>
			</g>
			<g>
				<path class="st2" d="M35.597,74.94v1.022v1.266c0,0,0,0,0,0l1.681,0.971c0.414-0.176,0.839-0.361,1.257-0.548
					c0.353-0.157,0.834-0.184,1.219-0.055c0.673,0.227,1.399,0.4,2.153,0.515c0.431,0.065,0.738,0.281,0.795,0.537
					c0.068,0.303,0.142,0.607,0.218,0.901v-2.091"/>
				<path class="st3" d="M42.922,79.921c-0.168,0-0.317-0.113-0.361-0.278c-0.078-0.298-0.152-0.606-0.221-0.914
					c-0.014-0.063-0.172-0.202-0.488-0.249c-0.774-0.116-1.52-0.295-2.217-0.53c-0.29-0.098-0.671-0.082-0.948,0.042
					c-0.421,0.187-0.847,0.373-1.263,0.55c-0.107,0.048-0.23,0.04-0.332-0.019l-1.681-0.971c-0.115-0.067-0.186-0.19-0.186-0.323
					V74.94c0-0.206,0.167-0.373,0.373-0.373c0.206,0,0.373,0.167,0.373,0.373v2.073l1.334,0.77c0.358-0.153,0.721-0.312,1.081-0.473
					c0.441-0.197,1.028-0.223,1.49-0.067c0.654,0.221,1.357,0.389,2.089,0.499c0.222,0.034,0.42,0.1,0.586,0.192v-0.476
					c0-0.206,0.167-0.373,0.373-0.373c0.206,0,0.373,0.167,0.373,0.373v2.091c0,0.187-0.14,0.345-0.325,0.37
					C42.953,79.92,42.937,79.921,42.922,79.921z"/>
			</g>
		</g>
		<g class="st1">
			<path class="st3" d="M45.3,79.548c0.077-0.294,0.151-0.598,0.219-0.901c0.057-0.255,0.364-0.471,0.795-0.536
				c0.755-0.114,1.481-0.288,2.153-0.515c0.385-0.13,0.866-0.103,1.219,0.055c0.419,0.186,0.843,0.371,1.258,0.548l1.681-0.971
				v-1.266V74.52l-1.043,1.278c0.393-0.388,0.694-0.807,0.891-1.243c0.113-0.249,0.487-0.426,0.929-0.459
				c0.524-0.039,1.051-0.082,1.561-0.126v-2.387l-2.49,0.428c-0.198-0.436-0.498-0.855-0.891-1.243
				c-0.225-0.222-0.177-0.501,0.095-0.704c0.323-0.242,0.643-0.487,0.948-0.726v-1.344v-0.762l-1.222,1.4l-0.459-0.265
				c-0.414,0.176-0.838,0.361-1.257,0.547c-0.353,0.157-0.835,0.185-1.22,0.055c-0.673-0.227-1.398-0.4-2.153-0.515
				c-0.431-0.065-0.738-0.282-0.795-0.537c-0.068-0.303-0.142-0.607-0.218-0.901l-2.378,0c-0.077,0.295-0.151,0.599-0.219,0.902
				c-0.057,0.255-0.364,0.471-0.795,0.536c-0.755,0.114-1.481,0.288-2.154,0.515c-0.385,0.13-0.866,0.103-1.219-0.055
				c-0.418-0.186-0.843-0.371-1.258-0.548l-0.441,0.255l-1.24-1.447v0.819v1.344c0.306,0.24,0.626,0.485,0.949,0.726
				c0.272,0.204,0.319,0.481,0.095,0.703c-0.393,0.388-0.694,0.808-0.892,1.244l-2.489-0.429v2.387c0,0,0,0,0,0
				c0.478,0.042,0.973,0.082,1.468,0.119c0.282,0.021,0.536,0.095,0.728,0.206c0.179,0.103,0.304,0.239,0.349,0.392
				c0.108,0.371,0.398,0.709,0.749,1.025l-0.956-0.773v1.022v1.266c0,0,0,0,0,0l1.681,0.971c0.414-0.176,0.839-0.361,1.257-0.548
				c0.353-0.157,0.834-0.184,1.219-0.055c0.673,0.227,1.399,0.4,2.153,0.515c0.431,0.065,0.738,0.281,0.795,0.537
				c0.068,0.303,0.142,0.607,0.218,0.901"/>
			<path class="st3" d="M42.922,79.548C42.922,79.548,42.922,79.548,42.922,79.548l2.378,0v-2.091"/>
		</g>
		<g>
			<g>
				<path class="st2" d="M35.455,72.082c0.179,0.103,0.304,0.239,0.349,0.392c0.108,0.371,0.398,0.709,0.749,1.025
					c0.286,0.258,0.258,0.589-0.065,0.832c-0.304,0.228-0.604,0.458-0.891,0.683c0,0,0,0,0,0l1.681,0.971
					c0.414-0.176,0.839-0.361,1.257-0.548c0.353-0.157,0.834-0.185,1.219-0.055c0.673,0.227,1.399,0.4,2.153,0.515
					c0.431,0.065,0.738,0.281,0.795,0.537c0.068,0.303,0.142,0.607,0.218,0.901c0,0,0,0,0,0l2.378,0
					c0.077-0.294,0.151-0.598,0.219-0.901c0.057-0.255,0.364-0.471,0.795-0.536c0.755-0.114,1.481-0.288,2.153-0.515
					c0.385-0.13,0.866-0.103,1.219,0.055c0.419,0.186,0.843,0.371,1.258,0.548l1.681-0.971c-0.306-0.239-0.626-0.484-0.949-0.726
					c-0.272-0.204-0.319-0.482-0.095-0.704c0.393-0.388,0.694-0.807,0.891-1.243c0.113-0.249,0.487-0.426,0.929-0.459
					c0.524-0.039,1.051-0.082,1.561-0.126l0-1.373c0,0,0,0,0,0c-0.508-0.044-1.035-0.087-1.56-0.126
					c-0.442-0.033-0.817-0.21-0.93-0.459c-0.198-0.436-0.498-0.855-0.891-1.243c-0.225-0.222-0.177-0.501,0.095-0.704
					c0.323-0.242,0.643-0.487,0.948-0.726l-1.681-0.971c-0.414,0.176-0.838,0.361-1.257,0.547c-0.353,0.157-0.835,0.185-1.22,0.055
					c-0.673-0.227-1.398-0.4-2.153-0.515c-0.431-0.065-0.738-0.282-0.795-0.537c-0.068-0.303-0.142-0.607-0.218-0.901l-2.378,0
					c-0.077,0.295-0.151,0.599-0.219,0.902c-0.057,0.255-0.364,0.471-0.795,0.536c-0.755,0.114-1.481,0.288-2.154,0.515
					c-0.385,0.13-0.866,0.103-1.219-0.055c-0.418-0.186-0.843-0.371-1.258-0.548l-1.681,0.971c0.306,0.24,0.626,0.485,0.949,0.726
					c0.272,0.204,0.319,0.481,0.095,0.703c-0.393,0.388-0.694,0.808-0.892,1.244c-0.113,0.249-0.487,0.426-0.929,0.459
					c-0.525,0.039-1.051,0.082-1.56,0.126l0,1.373c0,0,0,0,0,0c0.478,0.042,0.973,0.082,1.468,0.119
					C35.01,71.897,35.263,71.971,35.455,72.082z"/>
				<path class="st3" d="M45.3,77.708h-2.378c-0.17,0-0.317-0.114-0.361-0.278c-0.078-0.297-0.152-0.606-0.221-0.913
					c-0.014-0.064-0.172-0.202-0.487-0.249c-0.777-0.118-1.523-0.297-2.218-0.531c-0.289-0.099-0.67-0.082-0.948,0.043
					c-0.421,0.187-0.847,0.372-1.263,0.549c-0.107,0.048-0.23,0.04-0.332-0.019l-1.681-0.97c-0.107-0.062-0.177-0.174-0.185-0.297
					c-0.009-0.123,0.044-0.244,0.142-0.319c0.289-0.227,0.592-0.46,0.898-0.689c0.082-0.061,0.112-0.115,0.113-0.144
					c0.001-0.027-0.027-0.071-0.074-0.114c-0.471-0.426-0.743-0.806-0.857-1.197c-0.012-0.042-0.065-0.11-0.177-0.174l0,0
					c-0.148-0.085-0.351-0.142-0.571-0.158c-0.495-0.037-0.992-0.078-1.472-0.119c-0.192-0.017-0.34-0.179-0.34-0.372l0-1.373
					c0-0.193,0.148-0.355,0.341-0.372c0.511-0.044,1.038-0.086,1.564-0.126c0.372-0.028,0.586-0.171,0.618-0.242
					c0.218-0.478,0.544-0.934,0.969-1.354c0.031-0.049,0.013-0.089-0.056-0.141c-0.325-0.243-0.647-0.49-0.955-0.732
					c-0.098-0.077-0.15-0.196-0.142-0.319c0.009-0.123,0.078-0.235,0.185-0.297l1.681-0.97c0.101-0.058,0.223-0.066,0.332-0.019
					c0.417,0.177,0.844,0.362,1.264,0.549c0.276,0.124,0.658,0.143,0.948,0.043c0.694-0.234,1.44-0.412,2.217-0.531
					c0.316-0.048,0.473-0.185,0.487-0.248c0.069-0.307,0.144-0.614,0.221-0.914c0.043-0.164,0.191-0.278,0.361-0.278H45.3
					c0.17,0,0.317,0.114,0.36,0.278c0.079,0.297,0.153,0.605,0.222,0.913c0.014,0.063,0.172,0.202,0.487,0.249
					c0.774,0.118,1.52,0.296,2.216,0.53c0.285,0.096,0.677,0.081,0.95-0.042c0.421-0.187,0.847-0.374,1.262-0.549
					c0.109-0.047,0.232-0.039,0.332,0.019l1.681,0.97c0.107,0.062,0.177,0.174,0.185,0.297c0.009,0.123-0.045,0.244-0.142,0.319
					c-0.307,0.241-0.63,0.488-0.955,0.732c-0.069,0.051-0.087,0.092-0.088,0.1c0.458,0.461,0.784,0.917,1.001,1.394
					c0.032,0.071,0.245,0.213,0.618,0.242c0.526,0.04,1.055,0.082,1.564,0.126c0.192,0.016,0.341,0.179,0.341,0.372v1.373
					c0,0.193-0.147,0.354-0.341,0.372c-0.511,0.045-1.04,0.087-1.566,0.126c-0.371,0.028-0.584,0.171-0.616,0.241
					c-0.217,0.478-0.543,0.934-0.969,1.355c-0.031,0.049-0.013,0.089,0.056,0.14c0.324,0.244,0.646,0.491,0.954,0.731
					c0.098,0.077,0.151,0.196,0.143,0.32c-0.009,0.123-0.078,0.235-0.185,0.297l-1.681,0.971c-0.101,0.057-0.223,0.067-0.333,0.019
					c-0.415-0.178-0.841-0.362-1.262-0.549c-0.271-0.121-0.661-0.14-0.949-0.043c-0.693,0.234-1.438,0.412-2.216,0.531
					c-0.316,0.048-0.473,0.185-0.487,0.248c-0.069,0.307-0.144,0.616-0.221,0.914C45.617,77.593,45.47,77.708,45.3,77.708z
					 M43.211,76.963h1.8c0.049-0.202,0.098-0.407,0.144-0.61c0.094-0.419,0.517-0.734,1.103-0.823c0.735-0.112,1.438-0.279,2.09-0.5
					c0.464-0.153,1.048-0.129,1.489,0.068c0.36,0.16,0.724,0.318,1.081,0.472l1.04-0.6c-0.167-0.128-0.336-0.256-0.505-0.383
					c-0.232-0.173-0.369-0.402-0.385-0.643c-0.016-0.226,0.074-0.446,0.251-0.623c0.362-0.357,0.636-0.738,0.814-1.133
					c0.169-0.373,0.644-0.632,1.24-0.676c0.408-0.03,0.816-0.062,1.217-0.096v-0.689c-0.4-0.034-0.808-0.066-1.216-0.097
					c-0.597-0.045-1.072-0.304-1.241-0.677c-0.179-0.394-0.453-0.774-0.814-1.131c-0.178-0.176-0.267-0.397-0.251-0.622
					c0.016-0.243,0.153-0.472,0.385-0.645c0.17-0.127,0.339-0.255,0.505-0.382l-1.04-0.601c-0.357,0.153-0.72,0.312-1.08,0.473
					c-0.441,0.197-1.027,0.224-1.49,0.067c-0.655-0.22-1.358-0.388-2.09-0.499c-0.586-0.089-1.009-0.405-1.103-0.824
					c-0.046-0.205-0.094-0.408-0.144-0.609h-1.799c-0.05,0.202-0.099,0.407-0.145,0.61c-0.094,0.419-0.517,0.735-1.103,0.823
					c-0.734,0.111-1.437,0.279-2.09,0.5c-0.464,0.155-1.047,0.129-1.49-0.068c-0.359-0.16-0.722-0.318-1.081-0.473l-1.04,0.601
					c0.166,0.128,0.336,0.256,0.506,0.382c0.231,0.175,0.368,0.404,0.385,0.645c0.016,0.225-0.074,0.446-0.252,0.622
					c-0.36,0.356-0.635,0.737-0.815,1.132c-0.169,0.373-0.644,0.632-1.24,0.676c-0.407,0.031-0.815,0.063-1.215,0.097v0.689
					c0.37,0.031,0.747,0.061,1.123,0.089c0.334,0.025,0.64,0.114,0.886,0.255c0.269,0.155,0.45,0.366,0.521,0.611
					c0.074,0.253,0.278,0.524,0.641,0.853c0.217,0.196,0.331,0.444,0.32,0.7c-0.012,0.266-0.158,0.516-0.41,0.706
					c-0.151,0.114-0.301,0.227-0.449,0.341l1.039,0.6c0.358-0.153,0.721-0.311,1.081-0.472c0.443-0.197,1.027-0.224,1.49-0.068
					c0.653,0.22,1.356,0.389,2.09,0.5c0.586,0.088,1.009,0.405,1.103,0.824C43.113,76.557,43.161,76.762,43.211,76.963z"/>
			</g>
		</g>
		<g>
			<path class="st2" d="M49.357,71.764c0,0,0-1.663,0-1.663c0-0.446-0.176-0.891-0.528-1.294c-1.992-2.282-7.443-2.282-9.436,0
				c-0.352,0.403-0.528,0.849-0.528,1.294v1.663"/>
			<path class="st3" d="M49.356,72.137c-0.206,0-0.373-0.167-0.373-0.373v-1.663c0-0.36-0.15-0.723-0.436-1.05
				c-0.853-0.976-2.553-1.583-4.436-1.583h-0.001c-1.884,0-3.585,0.607-4.438,1.584c-0.285,0.327-0.436,0.69-0.436,1.049v1.663
				c0,0.206-0.167,0.373-0.373,0.373s-0.373-0.167-0.373-0.373v-1.663c0-0.541,0.214-1.074,0.62-1.539
				c1.006-1.152,2.874-1.84,4.999-1.84h0.001c2.124,0,3.993,0.688,4.997,1.839c0.406,0.465,0.62,0.997,0.62,1.54v1.663
				C49.729,71.97,49.562,72.137,49.356,72.137z"/>
		</g>
		<path class="st0" d="M49.357,71.764c0,0,0-1.663,0-1.663c0-0.446-0.176-0.891-0.528-1.294c-1.992-2.282-7.443-2.282-9.436,0
			c-0.352,0.403-0.528,0.849-0.528,1.294v1.663"/>
		<g>
			<path class="st2" d="M48.829,70.47c-1.992-2.282-7.443-2.282-9.436,0c-0.704,0.806-0.704,1.782,0,2.589
				c1.993,2.282,7.443,2.282,9.436,0C49.533,72.253,49.533,71.277,48.829,70.47z"/>
			<path class="st3" d="M44.11,75.142c-2.124,0-3.992-0.687-4.998-1.838c-0.829-0.951-0.829-2.131,0-3.08
				c1.006-1.152,2.874-1.839,4.998-1.839l0,0c2.125,0,3.994,0.687,4.999,1.839c0.83,0.95,0.83,2.13,0,3.08
				C48.104,74.455,46.235,75.142,44.11,75.142z M44.11,69.132c-1.883,0-3.584,0.606-4.437,1.584c-0.582,0.666-0.582,1.431,0,2.099
				c0.853,0.976,2.553,1.583,4.437,1.583c1.884,0,3.584-0.606,4.438-1.583c0.582-0.667,0.582-1.431,0-2.098l0,0
				C47.695,69.738,45.994,69.132,44.11,69.132z"/>
		</g>
	</g>
</g>
</svg>
