<?xml version="1.0" encoding="utf-8"?>
<!-- Generator: Adobe Illustrator 21.0.2, SVG Export Plug-In . SVG Version: 6.00 Build 0)  -->
<svg version="1.1" id="Layer_3" xmlns="http://www.w3.org/2000/svg" xmlns:xlink="http://www.w3.org/1999/xlink" x="0px" y="0px"
	 viewBox="0 0 80 80" style="enable-background:new 0 0 80 80;" xml:space="preserve">
<style type="text/css">
	.st0{opacity:0.1;fill:#0A6DD3;}
	.st1{fill:#FFFFFF;}
	.st2{fill:#0A6DD3;}
	.st3{opacity:0.2;}
	.st4{fill:#FFFFFF;stroke:#0A6DD3;stroke-linecap:round;stroke-linejoin:round;stroke-miterlimit:10;}
	.st5{fill:#FFD811;}
</style>
<g>
	<g>
		<polygon class="st0" points="22.926,62.476 -0.151,49.889 21.877,36.081 		"/>
		<g>
			<polygon class="st1" points="52.808,3.217 52.808,3.41 52.808,10.668 52.808,44.99 23.084,62.151 20.955,61.086 20.955,26.765 
				20.955,19.378 20.955,19.313 50.679,2.153 			"/>
			<path class="st2" d="M23.084,62.615c-0.071,0-0.143-0.016-0.208-0.049l-2.129-1.064c-0.158-0.079-0.257-0.24-0.257-0.416V19.378
				c0-0.166,0.089-0.384,0.233-0.467L50.446,1.75c0.135-0.078,0.302-0.083,0.44-0.013l2.129,1.064
				c0.158,0.079,0.257,0.24,0.257,0.416v41.772c0,0.166-0.088,0.32-0.232,0.403L23.317,62.554
				C23.245,62.595,23.165,62.615,23.084,62.615z M21.421,60.799l1.648,0.823l29.274-16.901V3.505l-1.648-0.824L21.421,19.582V60.799
				z"/>
		</g>
		<g>
			<line class="st1" x1="23.084" y1="27.829" x2="52.808" y2="10.668"/>
			<path class="st2" d="M23.085,28.295c-0.161,0-0.317-0.083-0.403-0.233c-0.128-0.222-0.052-0.507,0.17-0.635l29.723-17.161
				c0.221-0.129,0.506-0.053,0.636,0.17c0.128,0.222,0.052,0.507-0.171,0.635L23.317,28.232
				C23.243,28.275,23.164,28.295,23.085,28.295z"/>
		</g>
		<g class="st3">
			<polygon class="st2" points="33.842,32.327 27.781,35.817 27.789,28.823 33.85,25.333 			"/>
			<polygon class="st2" points="41.553,28.186 35.492,31.676 35.5,24.682 41.561,21.192 			"/>
			<polygon class="st2" points="49.067,24.045 43.006,27.535 43.014,20.541 49.075,17.05 			"/>
			<polygon class="st2" points="33.831,41.812 27.77,45.302 27.778,38.308 33.839,34.817 			"/>
			<polygon class="st2" points="41.543,37.671 35.482,41.161 35.489,34.167 41.551,30.677 			"/>
			<polygon class="st2" points="33.821,51.297 27.76,54.787 27.767,47.793 33.829,44.302 			"/>
			<polygon class="st2" points="41.532,47.156 35.471,50.646 35.479,43.652 41.54,40.162 			"/>
			<polygon class="st2" points="49.054,36.02 49.046,43.015 42.984,46.505 42.992,39.511 			"/>
			<polygon class="st2" points="49.056,33.53 49.064,26.535 43.003,30.026 42.995,37.02 			"/>
		</g>
		<path class="st4" d="M52.66,9.875"/>
		<path class="st2" d="M23.084,62.615c-0.257,0-0.465-0.208-0.465-0.465V20.442c0-0.166,0.089-0.384,0.233-0.467L52.575,2.814
			c0.221-0.128,0.506-0.053,0.636,0.17c0.128,0.222,0.052,0.507-0.171,0.635l-29.49,17.027v41.504
			C23.549,62.407,23.341,62.615,23.084,62.615z"/>
		<g>
			<polygon class="st1" points="33.831,41.812 27.77,45.302 27.778,38.308 33.839,34.817 			"/>
			<path class="st2" d="M27.77,45.802c-0.086,0-0.173-0.022-0.25-0.067c-0.155-0.09-0.25-0.255-0.25-0.434l0.008-6.994
				c0-0.179,0.096-0.344,0.25-0.433l6.062-3.49c0.155-0.089,0.345-0.09,0.5,0c0.155,0.089,0.25,0.254,0.25,0.433l-0.008,6.995
				c0,0.178-0.096,0.343-0.25,0.433l-6.062,3.49C27.943,45.779,27.856,45.802,27.77,45.802z M28.278,38.597l-0.006,5.84l5.061-2.914
				l0.006-5.84L28.278,38.597z M33.832,41.812h0.01H33.832z"/>
		</g>
		<path class="st0" d="M56.613,32.481c-8.435-0.107-13.139,4.62-14.456,13.735c-0.002,0.015-0.005,0.03-0.008,0.044
			c-2.347,10.129,8.12,10.792,19.586,6.714c0.266-0.095,0.526-0.21,0.777-0.342l0,0c2.92-1.606,5.006-3.757,5.742-6.786
			c0.652-3.132-0.866-8.233-4.567-11.092C61.781,33.325,59.004,32.631,56.613,32.481z"/>
	</g>
	<path class="st2" d="M35.468,18.708c-0.602,0-1.259-0.196-1.931-0.584c-0.208-0.12-0.278-0.384-0.159-0.591
		c0.119-0.207,0.385-0.278,0.591-0.159c0.886,0.511,1.694,0.607,2.28,0.269c0.585-0.338,0.907-1.087,0.907-2.109
		c0-2.305-1.624-5.118-3.62-6.271c-0.885-0.511-1.695-0.606-2.281-0.269c-0.585,0.338-0.907,1.087-0.907,2.109
		c0,0.78,0.191,1.655,0.554,2.53c0.092,0.221-0.013,0.474-0.234,0.565c-0.22,0.094-0.474-0.013-0.565-0.234
		c-0.406-0.979-0.62-1.968-0.62-2.861c0-1.344,0.476-2.36,1.34-2.859c0.864-0.5,1.982-0.403,3.146,0.269
		c2.235,1.291,4.054,4.44,4.054,7.021c0,1.345-0.476,2.36-1.34,2.859C36.318,18.603,35.907,18.708,35.468,18.708z"/>
	<g>
		<g>
			<path class="st1" d="M45.52,48.402l-4.62,5.261c-0.83,0.946-0.744,2.382,0.192,3.224c4.035,3.627,8.328,7.102,12.797,8.544
				c0.589,0.19,1.23,0.137,1.779-0.151l16.321-8.564"/>
			<path class="st2" d="M54.597,66.007c-0.286,0-0.574-0.043-0.851-0.132c-4.598-1.484-8.948-5.031-12.965-8.643
				c-1.12-1.006-1.224-2.745-0.231-3.876l4.62-5.261c0.169-0.194,0.465-0.211,0.656-0.043c0.193,0.17,0.213,0.464,0.043,0.656
				l-4.62,5.261c-0.658,0.75-0.589,1.903,0.153,2.571c3.94,3.542,8.198,7.018,12.629,8.448c0.472,0.149,0.988,0.107,1.42-0.121
				l16.322-8.564c0.224-0.119,0.509-0.032,0.628,0.196c0.119,0.228,0.031,0.509-0.196,0.628l-16.321,8.564
				C55.488,65.902,55.044,66.007,54.597,66.007z"/>
		</g>
		<g>
			<path class="st1" d="M45.52,48.402l-4.62,5.261c-0.83,0.946-0.744,2.382,0.192,3.224c4.035,3.627,8.328,7.102,12.797,8.544
				c0.589,0.19,1.23,0.137,1.779-0.151l16.321-8.564"/>
			<path class="st2" d="M54.597,66.007c-0.286,0-0.574-0.043-0.851-0.132c-4.598-1.484-8.948-5.031-12.965-8.643
				c-1.12-1.006-1.224-2.745-0.231-3.876l4.62-5.261c0.169-0.194,0.465-0.211,0.656-0.043c0.193,0.17,0.213,0.464,0.043,0.656
				l-4.62,5.261c-0.658,0.75-0.589,1.903,0.153,2.571c3.94,3.542,8.198,7.018,12.629,8.448c0.472,0.149,0.988,0.107,1.42-0.121
				l16.322-8.564c0.224-0.119,0.509-0.032,0.628,0.196c0.119,0.228,0.031,0.509-0.196,0.628l-16.321,8.564
				C55.488,65.902,55.044,66.007,54.597,66.007z"/>
		</g>
		<g>
			<path class="st5" d="M64.321,30.514c-10.967-0.139-17.084,6.007-18.796,17.859c-0.003,0.019-0.007,0.039-0.011,0.058
				c-3.051,13.17,10.558,14.032,25.467,8.729c0.346-0.123,0.684-0.273,1.01-0.444l0,0c3.797-2.089,6.509-4.885,7.466-8.823
				c0.848-4.072-1.127-10.705-5.939-14.422C71.041,31.612,67.429,30.709,64.321,30.514z"/>
			<path class="st2" d="M56.01,60.692c-3.885,0-6.96-0.864-8.904-2.6c-2.389-2.131-3.089-5.42-2.08-9.774
				c1.776-12.291,8.266-18.444,19.301-18.303c0.009,0,0.018,0,0.025,0.001c1.77,0.111,6.234,0.631,9.464,3.056
				c4.982,3.848,7.027,10.608,6.129,14.923c-0.93,3.825-3.452,6.816-7.714,9.16c-0.365,0.191-0.727,0.35-1.083,0.477
				C65.42,59.668,60.236,60.692,56.01,60.692z M63.951,31.012c-10.371,0-16.237,5.706-17.932,17.433
				c-0.002,0.014-0.016,0.086-0.019,0.1c-0.921,3.971-0.324,6.933,1.771,8.802c3.783,3.375,12.396,3.128,23.04-0.656
				c0.312-0.111,0.631-0.252,0.945-0.417c3.994-2.196,6.356-4.978,7.212-8.498c0.814-3.911-1.153-10.352-5.759-13.908
				c-2.083-1.564-5.414-2.631-8.908-2.852C64.185,31.013,64.066,31.012,63.951,31.012z"/>
		</g>
		<g>
			<path class="st1" d="M51.627,59.751c-0.493-0.113-1.002-0.269-1.523-0.461"/>
			<path class="st2" d="M51.627,60.216c-0.034,0-0.068-0.004-0.104-0.012c-0.494-0.113-1.011-0.27-1.58-0.479
				c-0.241-0.088-0.365-0.355-0.276-0.597c0.088-0.242,0.359-0.365,0.597-0.276c0.532,0.195,1.012,0.34,1.467,0.443
				c0.25,0.058,0.407,0.307,0.351,0.558C52.031,60.069,51.84,60.216,51.627,60.216z"/>
		</g>
		<g>
			<path class="st5" d="M74.294,34.243c-14.287-9.153-29.406,5.002-27.389,21.948l0.177,1.178c1.264,1.163,2.732,2.026,4.545,2.382
				l0.478-0.073c-0.5-4.805,0.181-9.225,2.04-13.262c1.476-4.253,3.54-7.795,6.121-10.712l5.611-3.061
				C68.973,32.167,71.84,32.488,74.294,34.243z"/>
			<path class="st2" d="M51.627,60.25c-0.032,0-0.064-0.003-0.096-0.01c-1.767-0.346-3.333-1.165-4.789-2.504
				c-0.084-0.077-0.139-0.182-0.155-0.294l-0.176-1.178c-1.101-9.242,2.898-18.411,9.949-22.829
				c5.146-3.224,11.102-3.399,16.59-0.549c0.571,0.262,1.116,0.578,1.635,0.949c0.221,0.158,0.275,0.462,0.123,0.687
				c-0.153,0.225-0.457,0.288-0.684,0.141c-0.494-0.316-0.992-0.605-1.495-0.868c-1.822-0.828-3.961-1.046-6.49-0.672L60.583,36.1
				c-2.554,2.905-4.561,6.43-5.965,10.479c-1.832,3.983-2.504,8.357-2.016,13.047c0.028,0.266-0.158,0.506-0.423,0.546l-0.479,0.072
				C51.676,60.248,51.652,60.25,51.627,60.25z M47.549,57.117c1.233,1.101,2.549,1.792,4.011,2.108
				c-0.409-4.681,0.307-9.058,2.132-13.02c1.439-4.157,3.532-7.818,6.201-10.834c0.038-0.043,0.084-0.08,0.135-0.107l5.61-3.061
				c0.051-0.028,0.106-0.046,0.163-0.055c0.395-0.061,0.78-0.108,1.158-0.141c-3.461-0.45-6.926,0.308-10.067,2.276
				c-6.729,4.217-10.543,12.997-9.49,21.847L47.549,57.117z"/>
		</g>
		<g>
			<path class="st5" d="M50.791,59.369c0.192-18.906,11.136-31.561,23.503-25.414c-12.774-4.844-21.4,8.859-21.972,25.721
				l-0.002,0.147C51.824,59.712,51.314,59.558,50.791,59.369"/>
			<path class="st2" d="M52.32,60.323c-0.036,0-0.073-0.004-0.109-0.012c-0.497-0.112-1.032-0.271-1.59-0.472
				c-0.2-0.072-0.332-0.264-0.33-0.476c0.118-11.662,4.326-21.44,10.982-25.519c4.079-2.5,8.659-2.617,13.243-0.339
				c0.238,0.119,0.342,0.404,0.235,0.648c-0.107,0.245-0.387,0.362-0.636,0.267c-4.113-1.56-7.905-1.219-11.263,1.017
				c-5.812,3.867-9.655,13.161-10.032,24.253l-0.001,0.134c-0.001,0.151-0.07,0.294-0.188,0.389
				C52.542,60.285,52.432,60.323,52.32,60.323z M51.296,59.016c0.186,0.062,0.367,0.118,0.544,0.169
				c0.484-11.209,4.471-20.593,10.459-24.578c0.643-0.427,1.304-0.791,1.983-1.089c-0.848,0.292-1.678,0.686-2.486,1.181
				C55.498,38.557,51.491,47.854,51.296,59.016z"/>
		</g>
	</g>
	<path class="st2" d="M42.92,14.45c-0.602,0-1.259-0.196-1.932-0.584c-0.207-0.12-0.278-0.384-0.158-0.591
		c0.12-0.208,0.386-0.278,0.592-0.159c0.884,0.511,1.693,0.607,2.28,0.269c0.585-0.338,0.907-1.087,0.907-2.109
		c0-2.305-1.624-5.118-3.621-6.271c-0.885-0.511-1.695-0.605-2.28-0.269C38.123,5.073,37.8,5.822,37.8,6.845
		c0,0.781,0.191,1.655,0.554,2.529c0.092,0.221-0.013,0.475-0.234,0.566c-0.218,0.092-0.474-0.012-0.566-0.234
		c-0.406-0.979-0.62-1.968-0.62-2.861c0-1.345,0.476-2.36,1.34-2.859c0.864-0.5,1.982-0.405,3.147,0.269
		c2.234,1.291,4.053,4.44,4.053,7.021c0,1.345-0.476,2.36-1.34,2.859C43.769,14.345,43.359,14.45,42.92,14.45z"/>
	<g>
		<polygon class="st0" points="31.336,75.896 22.901,71.295 30.953,66.248 		"/>
		<g>
			<g>
				<polygon class="st1" points="34.985,77.813 28.327,73.969 28.327,66.281 34.985,70.125 				"/>
				<path class="st2" d="M34.985,78.313c-0.086,0-0.173-0.022-0.25-0.067l-6.658-3.844c-0.155-0.089-0.25-0.254-0.25-0.433v-7.688
					c0-0.179,0.095-0.344,0.25-0.433c0.154-0.09,0.346-0.09,0.5,0l6.658,3.844c0.155,0.089,0.25,0.254,0.25,0.433v7.688
					c0,0.179-0.095,0.344-0.25,0.433C35.157,78.29,35.071,78.313,34.985,78.313z M28.827,73.68l5.658,3.267v-6.532l-5.658-3.267
					V73.68z"/>
			</g>
			<g>
				<polygon class="st1" points="41.616,73.969 34.958,77.813 34.958,70.125 41.616,66.281 				"/>
				<path class="st2" d="M34.958,78.313c-0.086,0-0.173-0.022-0.25-0.067c-0.155-0.089-0.25-0.254-0.25-0.433v-7.688
					c0-0.179,0.095-0.344,0.25-0.433l6.658-3.844c0.154-0.09,0.346-0.09,0.5,0c0.154,0.089,0.25,0.254,0.25,0.433v7.688
					c0,0.179-0.096,0.344-0.25,0.433l-6.658,3.844C35.131,78.29,35.045,78.313,34.958,78.313z M35.458,70.414v6.532l5.658-3.267
					v-6.532L35.458,70.414z M41.616,73.969h0.01H41.616z"/>
			</g>
			<g>
				<polygon class="st1" points="34.97,70.164 28.312,66.32 34.97,62.476 41.627,66.32 				"/>
				<path class="st2" d="M34.97,70.664c-0.086,0-0.173-0.022-0.25-0.067l-6.658-3.845c-0.155-0.089-0.25-0.254-0.25-0.433
					s0.095-0.344,0.25-0.433l6.658-3.844c0.154-0.09,0.346-0.09,0.5,0l6.658,3.845c0.154,0.089,0.25,0.254,0.25,0.433
					s-0.096,0.344-0.25,0.433l-6.658,3.844C35.143,70.642,35.056,70.664,34.97,70.664z M29.312,66.319l5.658,3.268l5.658-3.267
					l-5.658-3.268L29.312,66.319z"/>
			</g>
		</g>
	</g>
</g>
</svg>
