<?xml version="1.0" encoding="utf-8"?>
<!-- Generator: Adobe Illustrator 21.0.2, SVG Export Plug-In . SVG Version: 6.00 Build 0)  -->
<svg version="1.1" id="Layer_1" xmlns="http://www.w3.org/2000/svg" xmlns:xlink="http://www.w3.org/1999/xlink" x="0px" y="0px"
	 viewBox="0 0 80 80" style="enable-background:new 0 0 80 80;" xml:space="preserve">
<style type="text/css">
	.st0{opacity:0.1;fill:#0A6DD3;}
	.st1{fill:#FFFFFF;}
	.st2{fill:#0A6DD3;}
	.st3{fill:#FF6DD3;}
	.st4{fill:#FFD811;}
	.st5{fill:#0A6DD3;stroke:#0A6DD3;stroke-width:0.2327;stroke-linecap:round;stroke-linejoin:round;stroke-miterlimit:10;}
	.st6{font-family:'Panton-SemiBold';}
	.st7{font-size:25.6564px;}
	.st8{fill:#0A6DD3;stroke:#0A6DD3;stroke-width:0.25;stroke-linecap:round;stroke-linejoin:round;stroke-miterlimit:10;}
	.st9{font-size:9.7793px;}
</style>
<g>
	<g>
		<polygon class="st0" points="26.868,64.667 2.664,51.464 25.768,36.982 		"/>
		<g>
			<polygon class="st1" points="58.092,1.424 58.091,47.182 27.404,65.02 25.404,64.02 25.404,18.142 56.092,0.424 			"/>
			<path class="st2" d="M27.405,65.519c-0.077,0-0.153-0.018-0.224-0.053l-2-1c-0.169-0.085-0.276-0.258-0.276-0.447V18.141
				c0-0.179,0.095-0.344,0.25-0.433L55.842-0.009c0.145-0.084,0.322-0.089,0.474-0.014l2,1c0.169,0.085,0.276,0.258,0.276,0.447
				l-0.001,45.757c0,0.178-0.095,0.343-0.249,0.433L27.656,65.452C27.578,65.497,27.491,65.519,27.405,65.519z M25.905,63.711
				l1.482,0.74l30.205-17.558l0.001-45.16l-1.483-0.742L25.905,18.43V63.711z"/>
		</g>
		<path class="st2" d="M27.405,65.519c-0.276,0-0.5-0.224-0.5-0.5V19.141c0-0.179,0.095-0.344,0.25-0.433L57.842,0.991
			c0.238-0.139,0.545-0.057,0.683,0.183c0.139,0.239,0.057,0.545-0.183,0.683L27.905,19.43v45.589
			C27.905,65.296,27.681,65.519,27.405,65.519z"/>
		<g>
			<polygon class="st1" points="50.904,9.994 35.267,19.022 35.267,11.225 50.904,2.197 			"/>
			<path class="st2" d="M35.267,19.522c-0.086,0-0.173-0.022-0.25-0.067c-0.155-0.089-0.25-0.254-0.25-0.433v-7.797
				c0-0.179,0.095-0.344,0.25-0.433l15.637-9.028c0.154-0.089,0.346-0.089,0.5,0c0.154,0.089,0.25,0.254,0.25,0.433v7.797
				c0,0.179-0.096,0.344-0.25,0.433l-15.637,9.028C35.44,19.499,35.353,19.522,35.267,19.522z M35.767,11.513v6.642l14.637-8.451
				V3.063L35.767,11.513z M50.904,9.993h0.01H50.904z"/>
		</g>
		<polygon class="st0" points="50.904,9.994 35.267,19.022 35.267,11.225 50.904,2.197 		"/>
		<g>
			<line class="st1" x1="31.377" y1="29.211" x2="52.193" y2="17.068"/>
			<path class="st2" d="M31.378,29.711c-0.172,0-0.339-0.089-0.433-0.248c-0.139-0.239-0.058-0.545,0.18-0.684l20.816-12.143
				c0.236-0.139,0.544-0.059,0.684,0.18c0.14,0.239,0.059,0.545-0.18,0.684L31.629,29.643C31.55,29.689,31.463,29.711,31.378,29.711
				z"/>
		</g>
		<g>
			<line class="st1" x1="31.377" y1="36.01" x2="52.193" y2="23.868"/>
			<path class="st2" d="M31.378,36.511c-0.172,0-0.339-0.089-0.433-0.248c-0.139-0.239-0.058-0.545,0.18-0.684l20.816-12.143
				c0.236-0.138,0.544-0.059,0.684,0.18s0.059,0.545-0.18,0.684L31.629,36.443C31.55,36.489,31.463,36.511,31.378,36.511z"/>
		</g>
		<g>
			<line class="st1" x1="31.377" y1="42.81" x2="43.034" y2="36.01"/>
			<path class="st2" d="M31.378,43.31c-0.172,0-0.339-0.089-0.433-0.248c-0.139-0.238-0.058-0.545,0.18-0.684l11.657-6.8
				c0.236-0.138,0.544-0.059,0.684,0.18c0.14,0.239,0.059,0.545-0.18,0.684l-11.657,6.799C31.55,43.289,31.463,43.31,31.378,43.31z"
				/>
		</g>
		<g>
			<line class="st1" x1="31.377" y1="56.41" x2="43.034" y2="49.61"/>
			<path class="st2" d="M31.378,56.91c-0.172,0-0.339-0.089-0.433-0.248c-0.139-0.238-0.058-0.545,0.18-0.684l11.657-6.8
				c0.236-0.142,0.544-0.06,0.684,0.18c0.14,0.238,0.059,0.545-0.18,0.684l-11.657,6.8C31.55,56.888,31.463,56.91,31.378,56.91z"/>
		</g>
		<g>
			<line class="st3" x1="41.091" y1="5.848" x2="41.091" y2="10.268"/>
			<path class="st2" d="M41.092,10.768c-0.276,0-0.5-0.224-0.5-0.5v-4.42c0-0.276,0.224-0.5,0.5-0.5s0.5,0.224,0.5,0.5v4.42
				C41.592,10.544,41.368,10.768,41.092,10.768z"/>
		</g>
		<g>
			<line class="st3" x1="45.463" y1="3.711" x2="45.463" y2="8.131"/>
			<path class="st2" d="M45.463,8.631c-0.276,0-0.5-0.224-0.5-0.5v-4.42c0-0.276,0.224-0.5,0.5-0.5s0.5,0.224,0.5,0.5v4.42
				C45.963,8.407,45.74,8.631,45.463,8.631z"/>
		</g>
		<path class="st0" d="M58.413,19.649c-3.298,1.678-6.29,4.137-8.974,7.379c0.275,4.46,0.387,8.831-2.846,11.383v8.063
			c0.187,3.711,5.691,8.537,11.857,10.908"/>
		<path class="st2" d="M27.404,19.641c-0.075,0-0.151-0.017-0.223-0.053l-2-1c-0.247-0.124-0.347-0.424-0.224-0.671
			c0.124-0.248,0.423-0.347,0.671-0.224l2,1c0.247,0.124,0.347,0.424,0.224,0.671C27.764,19.54,27.588,19.641,27.404,19.641z"/>
	</g>
	<g>
		<g>
			<g>
				<path class="st1" d="M64.039,61.823c-7.874-2.222-14.715-6.867-14.715-12.263v-8.829c3.044-1.376,3.07-6.241,2.943-11.282
					c4.367-6.395,11.019-10.217,20.111-11.282l0.981,1.962c-0.125,3.288,0.214,6.271,3.434,7.358v0.981"/>
				<path class="st2" d="M64.039,62.323c-0.045,0-0.091-0.006-0.136-0.019c-6.956-1.964-15.079-6.479-15.079-12.744v-8.829
					c0-0.196,0.115-0.375,0.294-0.456c2.671-1.208,2.779-5.611,2.648-10.813c-0.003-0.105,0.028-0.208,0.087-0.295
					c4.482-6.563,11.368-10.431,20.466-11.496c0.206-0.027,0.412,0.084,0.506,0.273l0.98,1.962c0.037,0.075,0.056,0.159,0.053,0.243
					c-0.134,3.548,0.337,5.934,3.094,6.865c0.203,0.068,0.34,0.259,0.34,0.474v0.981c0,0.276-0.224,0.5-0.5,0.5s-0.5-0.224-0.5-0.5
					v-0.632c-3.173-1.268-3.547-4.381-3.438-7.597l-0.767-1.532c-8.563,1.079-15.061,4.742-19.317,10.892
					c0.109,4.371,0.205,9.706-2.946,11.441v8.521c0,5.34,7.208,9.766,14.351,11.781c0.266,0.075,0.421,0.352,0.346,0.617
					C64.458,62.179,64.258,62.323,64.039,62.323z"/>
			</g>
			<g>
				<path class="st4" d="M73.359,20.13c-7.298,0.673-13.511,4.107-18.639,10.301c0.285,4.612,0.4,9.133-2.943,11.772v8.339
					c0.194,3.838,5.886,8.829,12.263,11.282c9.326-9.465,13.269-20.684,12.753-33.355C73.381,27.905,73.188,24.196,73.359,20.13z"/>
				<path class="st2" d="M64.039,62.323c-0.061,0-0.121-0.011-0.18-0.033c-6.857-2.637-12.384-7.786-12.582-11.723l-0.001-8.364
					c0-0.153,0.07-0.298,0.19-0.393c3.045-2.404,3.049-6.562,2.754-11.349c-0.008-0.127,0.033-0.252,0.114-0.35
					c5.191-6.271,11.576-9.797,18.978-10.48c0.146-0.011,0.286,0.036,0.391,0.136s0.161,0.239,0.155,0.383
					c-0.194,4.608,0.237,7.366,3.015,7.825c0.234,0.039,0.409,0.236,0.419,0.473c0.536,13.15-3.804,24.497-12.896,33.726
					C64.3,62.271,64.171,62.323,64.039,62.323z M52.277,42.44v8.102c0.174,3.433,5.364,8.196,11.637,10.695
					c8.646-8.89,12.813-19.772,12.394-32.358c-3.302-0.819-3.586-4.559-3.47-8.193c-6.827,0.776-12.747,4.108-17.605,9.912
					C55.478,34.621,55.722,39.54,52.277,42.44z"/>
			</g>
		</g>
		<text transform="matrix(0.866 -0.5 0 1 57.2833 53.5916)" class="st5 st6 st7">₽</text>
	</g>
	<g>
		<g>
			<path class="st0" d="M46.769,79.391c-12.397-2.272-12.397-7.357-5.405-10.78"/>
			<g>
				<g>
					<g>
						<g>
							<g>
								<g>
									<path class="st1" d="M56.434,68.02c-3.918-2.262-10.27-2.262-14.188,0c-1.959,1.131-2.939,2.614-2.939,4.096
										c0,1.482,0.98,2.965,2.939,4.096c3.918,2.262,10.27,2.262,14.188,0c1.959-1.131,2.938-2.613,2.938-4.096
										C59.373,70.633,58.393,69.151,56.434,68.02z"/>
									<path class="st2" d="M49.339,78.397c-2.659,0-5.318-0.584-7.343-1.753c-2.056-1.187-3.188-2.795-3.188-4.528
										s1.132-3.342,3.189-4.529c4.049-2.338,10.638-2.339,14.688,0.001l0,0c2.056,1.187,3.188,2.795,3.188,4.527
										c0,1.733-1.132,3.342-3.188,4.528C54.659,77.813,51.999,78.397,49.339,78.397z M49.339,66.819
										c-2.478,0-4.956,0.544-6.842,1.633c-1.734,1.002-2.689,2.303-2.689,3.664s0.955,2.662,2.688,3.663
										c3.774,2.179,9.914,2.178,13.688-0.001c1.733-1.001,2.688-2.302,2.688-3.663c0-1.36-0.954-2.661-2.688-3.662l0,0
										C54.297,67.364,51.819,66.819,49.339,66.819z"/>
								</g>
							</g>
						</g>
					</g>
				</g>
				<g>
					<path class="st1" d="M56.434,76.211c-3.918,2.262-10.27,2.262-14.188,0c-1.959-1.131-2.938-2.613-2.939-4.096v1.678
						c0,1.482,0.98,2.965,2.939,4.096c3.918,2.262,10.27,2.262,14.188,0c1.959-1.131,2.938-2.613,2.938-4.096v-1.678
						C59.373,73.598,58.393,75.08,56.434,76.211z"/>
					<path class="st2" d="M49.339,80.076c-2.659,0-5.318-0.584-7.343-1.754c-2.056-1.187-3.188-2.795-3.188-4.528v-1.678
						c0-0.276,0.224-0.5,0.5-0.5s0.5,0.224,0.5,0.5c0,1.361,0.955,2.662,2.688,3.663c3.774,2.179,9.914,2.178,13.688-0.001l0,0
						c1.733-1.001,2.688-2.302,2.688-3.663c0-0.276,0.224-0.5,0.5-0.5s0.5,0.224,0.5,0.5v1.679c0,1.733-1.132,3.342-3.188,4.528
						C54.659,79.491,51.999,80.076,49.339,80.076z M40.184,75.255c0.428,0.813,1.214,1.567,2.312,2.202
						c3.772,2.179,9.914,2.177,13.688,0c1.099-0.635,1.884-1.39,2.312-2.204c-0.484,0.507-1.092,0.975-1.812,1.391l0,0
						c-4.05,2.34-10.639,2.34-14.688,0.001C41.276,76.229,40.669,75.762,40.184,75.255z M56.435,76.211h0.01H56.435z"/>
				</g>
			</g>
			<text transform="matrix(0.866 -0.5 0.866 0.5 49.9977 75.3489)" class="st8 st6 st9">₽</text>
		</g>
	</g>
</g>
</svg>
